<?xml version="1.0" encoding="utf-8"?>
<!-- Generator: Adobe Illustrator 27.2.0, SVG Export Plug-In . SVG Version: 6.00 Build 0)  -->
<svg version="1.1" id="Layer_1" xmlns="http://www.w3.org/2000/svg" xmlns:xlink="http://www.w3.org/1999/xlink" x="0px" y="0px"
	 viewBox="0 0 476.2 380" style="enable-background:new 0 0 476.2 380;" xml:space="preserve">
<style type="text/css">
	.st0{fill:#FFFFFF;stroke:#808184;stroke-width:0.5;stroke-miterlimit:10;}
	.st1{fill:none;stroke:#808184;stroke-width:0.5;stroke-miterlimit:10;}
	.st2{fill:#808184;}
	.st3{fill:#FFFFFF;stroke:#808184;stroke-width:0.25;stroke-miterlimit:10;}
	.st4{fill:none;stroke:#808184;stroke-width:0.25;stroke-miterlimit:10;}
	.st5{fill:none;stroke:#808184;stroke-width:0.378;stroke-miterlimit:10;}
	.st6{fill:none;stroke:#808184;stroke-width:0.189;stroke-miterlimit:10;}
	.st7{fill:#FFFFFF;stroke:#808184;stroke-width:0.378;stroke-miterlimit:10;}
	.st8{fill:#808184;stroke:#808184;stroke-width:9.451170e-02;stroke-miterlimit:10;}
	.st9{fill:#FFFFFF;stroke:#808285;stroke-width:0.5;stroke-miterlimit:10;}
	.st10{fill:none;stroke:#808285;stroke-width:0.25;stroke-miterlimit:10;}
	.st11{fill:#808285;}
	.st12{fill:none;stroke:#808285;stroke-width:0.5103;stroke-miterlimit:10;}
	.st13{fill:none;stroke:#808285;stroke-width:0.1722;stroke-miterlimit:10;}
	.st14{fill:none;stroke:#808285;stroke-width:0.5081;stroke-miterlimit:10;}
	.st15{fill:#666766;}
	.st16{fill:none;stroke:#808285;stroke-width:0.1722;stroke-linecap:round;stroke-linejoin:round;stroke-miterlimit:10;}
	.st17{fill:none;stroke:#808285;stroke-width:0.5081;stroke-linecap:round;stroke-linejoin:round;stroke-miterlimit:10;}
	.st18{fill:none;stroke:#808285;stroke-width:0.6888;stroke-miterlimit:10;}
	.st19{fill:none;stroke:#808285;stroke-width:0.2913;stroke-linecap:round;stroke-linejoin:round;stroke-miterlimit:10;}
	.st20{fill:#FFFFFF;stroke:#808285;stroke-width:0.2913;stroke-linecap:round;stroke-linejoin:round;stroke-miterlimit:10;}
	.st21{fill:none;stroke:#808285;stroke-width:0.6164;stroke-miterlimit:10;}
	.st22{fill:none;stroke:#010101;stroke-width:0.1389;stroke-linecap:round;stroke-linejoin:round;stroke-miterlimit:10;}
	.st23{fill:none;stroke:#010101;stroke-width:1.959448e-02;stroke-miterlimit:10;}
	.st24{fill:none;stroke:#010101;stroke-width:7.347929e-02;stroke-linecap:round;stroke-linejoin:round;stroke-miterlimit:10;}
	.st25{fill:#888B8D;}
	.st26{fill:none;stroke:#888B8D;stroke-width:9.797239e-02;stroke-linecap:round;stroke-linejoin:round;stroke-miterlimit:10;}
	.st27{fill-rule:evenodd;clip-rule:evenodd;fill:#888B8D;}
	.st28{fill:#231F20;}
	.st29{fill:none;stroke:#010101;stroke-width:9.797239e-02;stroke-linecap:round;stroke-linejoin:round;stroke-miterlimit:10;}
	.st30{fill:none;stroke:#000000;stroke-width:0.1959;stroke-miterlimit:10;}
	.st31{fill:#898A8D;}
	.st32{fill:none;}
	.st33{fill:none;stroke:#010101;stroke-width:0.1959;stroke-linecap:round;stroke-linejoin:round;stroke-miterlimit:10;}
	.st34{fill:none;stroke:#010101;stroke-width:4.898620e-02;stroke-linecap:round;stroke-linejoin:round;stroke-miterlimit:10;}
	.st35{fill:#010101;}
	.st36{fill:none;stroke:#F15A29;stroke-width:9.797239e-02;stroke-miterlimit:10;}
	.st37{fill:none;stroke:#F15A29;stroke-width:9.797239e-02;stroke-miterlimit:10;stroke-dasharray:0.3857,0.3857,0.3857,0.3857;}
	
		.st38{fill:none;stroke:#F15A29;stroke-width:9.797239e-02;stroke-miterlimit:10;stroke-dasharray:0.3857,0.3857,0.3857,0.3857,0.3857,0.3857;}
	.st39{fill:none;stroke:#F15A29;stroke-width:9.797239e-02;stroke-miterlimit:10;stroke-dasharray:0.3977,0.3977,0.3977,0.3977;}
	
		.st40{fill:none;stroke:#F15A29;stroke-width:9.797239e-02;stroke-miterlimit:10;stroke-dasharray:0.3977,0.3977,0.3977,0.3977,0.3977,0.3977;}
	.st41{fill:#F15A29;}
	.st42{clip-path:url(#SVGID_00000067208553320518774470000017785182423980308655_);}
	.st43{fill:none;stroke:#010101;stroke-width:4.815879e-02;stroke-miterlimit:10;}
	.st44{fill:none;stroke:#010101;stroke-width:5.111984e-02;stroke-miterlimit:10;}
	.st45{fill:#C8C8C8;}
	.st46{fill:none;stroke:#010101;stroke-width:1.599009e-02;stroke-miterlimit:10;}
	.st47{fill:none;stroke:#010101;stroke-width:0.1104;stroke-linecap:round;stroke-linejoin:round;stroke-miterlimit:10;}
	.st48{fill:none;stroke:#808285;stroke-width:0.1604;stroke-miterlimit:10;}
	.st49{fill:#E8E8E8;stroke:#808285;stroke-width:0.6888;stroke-miterlimit:10;}
	.st50{fill:none;stroke:#808285;stroke-width:0.5;stroke-miterlimit:10;}
	.st51{fill:none;stroke:#010101;stroke-width:3.895216e-02;stroke-miterlimit:10;}
	.st52{opacity:0.84;fill:#FFFFFF;}
	.st53{fill:#FFFFFF;}
	.st54{fill:none;stroke:#808285;stroke-width:0.6746;stroke-linecap:round;stroke-linejoin:round;stroke-miterlimit:10;}
	.st55{fill:none;stroke:#808285;stroke-width:1.9905;stroke-linecap:round;stroke-linejoin:round;stroke-miterlimit:10;}
	.st56{fill:none;stroke:#808285;stroke-width:1.9905;stroke-miterlimit:10;}
	.st57{fill:none;stroke:#808285;stroke-width:0.6746;stroke-miterlimit:10;}
	.st58{fill:none;stroke:#808285;stroke-width:2.6985;stroke-miterlimit:10;}
	.st59{clip-path:url(#SVGID_00000085217791302068829550000016515847573048422567_);}
	.st60{clip-path:url(#SVGID_00000121993366763497884470000011718922249954842796_);}
	.st61{clip-path:url(#SVGID_00000054967081164537256650000008466529856105370018_);}
	.st62{clip-path:url(#SVGID_00000101099461570043551260000009089013995820204421_);}
	.st63{clip-path:url(#SVGID_00000030459820010097817920000003128061955901615766_);}
	.st64{fill:none;stroke:#808285;stroke-width:1.2427;stroke-miterlimit:10;}
	.st65{fill:none;stroke:#808285;stroke-width:0.4193;stroke-linecap:round;stroke-linejoin:round;stroke-miterlimit:10;}
	.st66{fill:none;stroke:#808285;stroke-width:1.2372;stroke-linecap:round;stroke-linejoin:round;stroke-miterlimit:10;}
	.st67{fill:none;stroke:#808285;stroke-width:1.2372;stroke-miterlimit:10;}
	.st68{fill:none;stroke:#808285;stroke-width:0.4193;stroke-miterlimit:10;}
	.st69{fill:none;stroke:#808285;stroke-width:1.6773;stroke-miterlimit:10;}
	.st70{fill:none;stroke:#808285;stroke-width:0.7092;stroke-linecap:round;stroke-linejoin:round;stroke-miterlimit:10;}
	.st71{fill:#FFFFFF;stroke:#808285;stroke-width:0.7092;stroke-linecap:round;stroke-linejoin:round;stroke-miterlimit:10;}
	.st72{fill:none;stroke:#808285;stroke-width:1.501;stroke-miterlimit:10;}
	.st73{fill:#84C4C0;}
	.st74{fill:none;stroke:#808285;stroke-width:2.4656;stroke-miterlimit:10;}
	.st75{fill:none;stroke:#808285;stroke-width:0.832;stroke-miterlimit:10;}
	.st76{fill:none;stroke:#808285;stroke-width:2.4548;stroke-miterlimit:10;}
	.st77{fill:none;stroke:#808285;stroke-width:0.832;stroke-linecap:round;stroke-linejoin:round;stroke-miterlimit:10;}
	.st78{fill:none;stroke:#808285;stroke-width:2.4548;stroke-linecap:round;stroke-linejoin:round;stroke-miterlimit:10;}
	.st79{fill:none;stroke:#808285;stroke-width:3.328;stroke-miterlimit:10;}
	.st80{fill:none;stroke:#808285;stroke-width:1.4072;stroke-linecap:round;stroke-linejoin:round;stroke-miterlimit:10;}
	.st81{fill:none;stroke:#808285;stroke-width:2.9781;stroke-miterlimit:10;}
	.st82{fill:#FFFFFF;stroke:#808285;stroke-width:1.4072;stroke-linecap:round;stroke-linejoin:round;stroke-miterlimit:10;}
	.st83{fill:#05A6A1;}
	.st84{fill:none;stroke:#666766;stroke-width:0.832;stroke-miterlimit:10;}
	.st85{fill:none;stroke:#666766;stroke-width:2.4548;stroke-miterlimit:10;}
	.st86{fill:none;stroke:#666766;stroke-width:2.4656;stroke-miterlimit:10;}
	.st87{fill:none;stroke:#666766;stroke-width:0.832;stroke-linecap:round;stroke-linejoin:round;stroke-miterlimit:10;}
	.st88{fill:none;stroke:#666766;stroke-width:2.4548;stroke-linecap:round;stroke-linejoin:round;stroke-miterlimit:10;}
	.st89{fill:none;stroke:#666766;stroke-width:3.328;stroke-miterlimit:10;}
	.st90{fill:none;stroke:#666766;stroke-width:1.4071;stroke-linecap:round;stroke-linejoin:round;stroke-miterlimit:10;}
	.st91{fill:none;stroke:#666766;stroke-width:2.9781;stroke-miterlimit:10;}
	.st92{fill:#FFFFFF;stroke:#666766;stroke-width:1.4071;stroke-linecap:round;stroke-linejoin:round;stroke-miterlimit:10;}
</style>
<g>
	<g>
		<g>
			<g>
				<path class="st15" d="M87.8,287.1L87.8,287.1c0.2,1,1,1.7,2.1,1.7c0.8,0,1.4-0.2,1.8-0.7h1.9c-0.6,1.4-1.9,2.3-3.7,2.3
					c-2.4,0-4-1.7-4-3.9c0-2.3,1.7-3.9,4-3.9c2.4,0,4,1.7,4,3.9v0.6H87.8z M87.9,285.7L87.9,285.7l4.2,0v0c-0.3-0.9-1-1.5-2.1-1.5
					C88.9,284.2,88.1,284.8,87.9,285.7L87.9,285.7z M101.5,290.2V286c0-1.2,0.6-1.7,1.5-1.7c0.9,0,1.5,0.5,1.5,1.7v4.2h1.8V286
					c0-2.3-1.4-3.4-3.1-3.4c-1.1,0-2,0.5-2.6,1.3h0c-0.5-0.8-1.5-1.3-2.6-1.3c-1.8,0-3.1,1.1-3.1,3.4v4.2h1.8V286
					c0-1.2,0.6-1.7,1.5-1.7c0.9,0,1.5,0.5,1.5,1.7v4.2H101.5z M107.2,279.6h1.8v4.3h0c0.5-0.8,1.4-1.2,2.5-1.2
					c1.8,0,3.7,1.3,3.7,3.9c0,2.3-1.7,3.9-4,3.9c-2.4,0-4-1.6-4-4V279.6z M113.4,286.5c0-1.3-0.9-2.2-2.2-2.2
					c-1.3,0-2.2,0.9-2.2,2.2c0,1.3,0.9,2.2,2.2,2.2C112.5,288.7,113.4,287.8,113.4,286.5L113.4,286.5z M117.9,287.1L117.9,287.1
					c0.2,1,1,1.7,2.1,1.7c0.8,0,1.4-0.2,1.8-0.7h1.9c-0.6,1.4-1.9,2.3-3.7,2.3c-2.4,0-4-1.7-4-3.9c0-2.3,1.7-3.9,4-3.9
					c2.4,0,4,1.7,4,3.9v0.6H117.9z M118,285.7L118,285.7l4.2,0v0c-0.3-0.9-1-1.5-2.1-1.5C119,284.2,118.2,284.8,118,285.7L118,285.7
					z M131.5,286L131.5,286c0-2.3-1.3-3.4-3.3-3.4c-2,0-3.3,1.1-3.3,3.3v4.3h1.8v-4.3c0-1.2,0.6-1.6,1.5-1.6c0.9,0,1.5,0.4,1.5,1.6
					v0.1H131.5z"/>
			</g>
			<g>
				<path class="st87" d="M42.8,194.6h0.1h0.3h0.5h0.6H45h0.9h1h1.2h1.3h1.5h1.6h1.7h1.9h2h2.1h2.2h2.3h2.4h2.4h2.7h2.7h2.7h2.9h2.9
					h2.9h3h3.1h3.1h3.1h3.1h3.1h3.2h3.1h3.1h3.1h3.1h3.1h3.1h3h3h2.9h2.9h2.8h2.7h2.7h2.6h2.4h2.3h2.3h2.1h2h2h1.7h1.7h1.5h1.4h1.3
					h1.1h0.9h0.8h0.7h0.5h0.4h0.2h0.1 M104.4,78.3l4.3-0.1l4.3,0.1 M42.1,194v0.1l0.1,0.1l0.1,0.1l0.1,0.1l0.1,0.1l0.1,0.1h0.1h0.1
					 M175.3,194v0.1l-0.1,0.1l-0.1,0.1l-0.1,0.1l-0.1,0.1l-0.1,0.1h-0.1h-0.1"/>
				<path class="st88" d="M175.3,182.1l-0.1-5.2v-5l-0.1-4.6l-0.1-5.5l-0.1-5l-0.1-4.7l-0.1-4.3l-0.1-4.1l-0.3-5.3l-0.3-5l-0.6-4.6
					l-0.6-4.3l-0.8-4.1l-1-3.8l-1.3-3.7l-1.5-3.6l-2.3-4.4l-2.7-4.1l-3.2-3.8l-3.6-3.5l-4.1-3.1l-4.3-2.8l-3.8-2l-4.1-1.7l-4.1-1.5
					l-4.2-1.3l-4.2-1l-4.1-0.7l-3.8-0.6l-3.5-0.3l-3-0.1h-8.8l-3,0.1l-3.5,0.3L94,79.4l-4.1,0.7l-4.2,1l-4.2,1.3l-4.1,1.5l-4.1,1.7
					l-3.8,2l-4.3,2.8l-4.1,3.1l-3.6,3.5l-3.2,3.8l-2.7,4.1l-2.3,4.4l-1.5,3.6l-1.3,3.7l-1,3.8l-0.8,4.1l-0.6,4.3l-0.6,4.6l-0.3,5
					l-0.3,5.3l-0.1,4.1l-0.1,4.3l-0.1,4.7l-0.1,5l-0.1,5.5l-0.1,4.6v5l-0.1,5.2l-0.1,5.7l-0.1,6.1h133.3v-6.1L175.3,182.1z"/>
			</g>
			<path class="st88" d="M175.4,197.3l-0.1-0.5l-0.1-0.5l-0.1-0.6l-0.1-0.5l-0.2-0.4l-0.2-0.5v-0.1v-0.1h-0.1v-0.1l-0.1-0.1V194V194
				l-0.1-0.1l-0.8-2.2l-0.8-2.9l-0.1-0.3l-0.1-0.3l-0.2-0.2l-0.2-0.3l-0.2-0.1l-0.3-0.1l-0.2-0.1c0.6-0.3,1.1-0.6,1.1-1.1l-0.3-7
				l-0.3-5.9l-0.3-5.4l-0.3-4.8l-0.5-4.1l-0.6-3.6l-0.8-3.1l-1.3-3.3l-1.7-2.5l-2.2-2l-2.6-1.7l-3.1-1.6l-3.6-1.7l-1.7-0.7l-0.1-0.1
				l-3.6-1.8l-0.5-0.2l-0.4-0.3l-0.5-0.2l-0.5-0.3l-0.6-0.3l-1.8-0.9l-4.3-2.5l-3.6-2.4l-3.1-2.3l-2.6-2.1l-3.8-4l-2.9-4.1l-1.8-3.6
				l-1.1-3.6l-0.5-3.8l0.1-2.6l0.3-2.9l0.5-4l0.2-4.1l-0.1-1.5l-0.2-1.6l-0.3-1.3l-0.6-1.5l-0.8-1.5l-1-1.5l-1.6-1.6l-2-1.3
				l-1.3-0.6l-1.6-0.4l-1.6-0.2l-2-0.1H109H109h-0.1h-0.1h-0.1h-0.1h-0.1h-0.1h-0.1h-0.1h-0.1h-0.1l-2,0.1l-1.6,0.2l-1.6,0.4
				l-1.3,0.6l-2,1.3l-1.6,1.6l-1,1.5l-0.8,1.5l-0.6,1.5l-0.3,1.3l-0.2,1.6l-0.1,1.5l0.2,4.1l0.5,4l0.3,2.9l0.1,2.6l-0.5,3.8
				l-1.1,3.6l-1.8,3.6l-2.9,4.1l-3.8,4l-2.6,2.1l-3.1,2.3l-3.6,2.4l-4.3,2.5l-1.8,0.9l-0.6,0.3l-0.5,0.3l-0.5,0.2l-0.4,0.3l-0.5,0.2
				l-3.6,1.8l-0.1,0.1l-1.7,0.7l-3.6,1.7l-3.1,1.6l-2.6,1.7l-2.2,2l-1.7,2.5l-1.3,3.3l-0.8,3.1l-0.6,3.6l-0.5,4.1l-0.3,4.8l-0.3,5.4
				l-0.3,5.9l-0.3,7c0,0.5,0.5,0.8,1.1,1.1l-0.2,0.1l-0.3,0.1l-0.2,0.1l-0.2,0.3l-0.2,0.2l-0.1,0.3l-0.1,0.3l-0.8,2.9l-0.8,2.2
				l-0.1,0.1v0.1v0.1l-0.1,0.1v0.1h-0.1v0.1v0.1l-0.2,0.5l-0.2,0.4l-0.1,0.5l-0.1,0.6l-0.1,0.5l-0.1,0.5l-0.1,0.5v0.6v67.9l0.1,2.9
				l0.1,9.1l0.1,8.3l0.1,7.6l0.1,6.9l0.1,6.4l0.2,5.7l0.2,5.2l0.3,5.1l0.3,4.5l0.3,4.1l0.5,3.6l0.6,3.2l0.9,4.1l1.2,3.5l1.4,3.1
				l1.7,2.9l2,2.7l2.2,2.8l0.5,0.5l0.6,0.4l1.2,0.1h0.1h0.4h0.9h1.3h1.8H64h3.1h41.5h41.5h3.1h2.5h1.8h1.3h0.9h0.4h0.1l1.2-0.1
				l0.6-0.4l0.5-0.5l2.2-2.8l2-2.7l1.7-2.9l1.4-3.1l1.2-3.5l0.9-4.1l0.6-3.2l0.5-3.6l0.3-4.1l0.3-4.5l0.3-5.1l0.2-5.2l0.2-5.7
				l0.1-6.4l0.1-6.9l0.1-7.6l0.1-8.3l0.1-9.1l0.1-2.9v-67.9v-0.6L175.4,197.3z"/>
			<line class="st87" x1="86.1" y1="125.4" x2="131.3" y2="125.4"/>
			<line class="st87" x1="64.6" y1="138.8" x2="152.8" y2="138.8"/>
			<line class="st88" x1="46.2" y1="187.4" x2="171.2" y2="187.4"/>
			<line class="st87" x1="42" y1="198.4" x2="175.4" y2="198.4"/>
			<line class="st85" x1="42.8" y1="269" x2="174.6" y2="269"/>
			<line class="st88" x1="62.8" y1="139.5" x2="154.6" y2="139.5"/>
			<line class="st87" x1="86.1" y1="128.8" x2="131.3" y2="128.8"/>
			<line class="st87" x1="86.1" y1="132.1" x2="131.3" y2="132.1"/>
			<line class="st87" x1="71.2" y1="135.4" x2="146.2" y2="135.4"/>
			<line class="st87" x1="82" y1="128.8" x2="135.4" y2="128.8"/>
			<line class="st87" x1="77" y1="132.1" x2="140.4" y2="132.1"/>
			<g>
				<path class="st87" d="M95.5,125.1c-0.3,0-0.7-0.1-0.9-0.4c-0.6-0.5-0.6-1.4-0.1-2c6-6.6,6.6-19.9,4.1-25.7
					c-0.3-0.7,0-1.5,0.7-1.8c0.7-0.3,1.5,0,1.8,0.7c2.8,6.3,2.4,21-4.6,28.7C96.2,124.9,95.9,125.1,95.5,125.1z"/>
				<path class="st87" d="M121.9,125.1c0.3,0,0.7-0.1,0.9-0.4c0.6-0.5,0.6-1.4,0.1-2c-6-6.6-6.6-19.9-4.1-25.7
					c0.3-0.7,0-1.5-0.7-1.8c-0.7-0.3-1.5,0-1.8,0.7c-2.8,6.3-2.4,21,4.6,28.7C121.2,124.9,121.5,125.1,121.9,125.1z"/>
			</g>
		</g>
		<g>
			<g>
				<path class="st15" d="M249.7,287.1L249.7,287.1c0.2,1,1,1.7,2.1,1.7c0.8,0,1.4-0.2,1.8-0.7h1.9c-0.6,1.4-1.9,2.3-3.7,2.3
					c-2.4,0-4-1.7-4-3.9c0-2.3,1.7-3.9,4-3.9c2.4,0,4,1.7,4,3.9v0.6H249.7z M249.7,285.7L249.7,285.7l4.2,0v0
					c-0.3-0.9-1-1.5-2.1-1.5C250.8,284.2,250,284.8,249.7,285.7L249.7,285.7z M263.3,290.2V286c0-1.2,0.6-1.7,1.5-1.7
					c0.9,0,1.5,0.5,1.5,1.7v4.2h1.8V286c0-2.3-1.4-3.4-3.1-3.4c-1.1,0-2,0.5-2.6,1.3h0c-0.5-0.8-1.5-1.3-2.6-1.3
					c-1.8,0-3.1,1.1-3.1,3.4v4.2h1.8V286c0-1.2,0.6-1.7,1.5-1.7c0.9,0,1.5,0.5,1.5,1.7v4.2H263.3z M269,279.6h1.8v4.3h0
					c0.5-0.8,1.4-1.2,2.5-1.2c1.8,0,3.7,1.3,3.7,3.9c0,2.3-1.7,3.9-4,3.9c-2.4,0-4-1.6-4-4V279.6z M275.2,286.5
					c0-1.3-0.9-2.2-2.2-2.2c-1.3,0-2.2,0.9-2.2,2.2c0,1.3,0.9,2.2,2.2,2.2C274.4,288.7,275.2,287.8,275.2,286.5L275.2,286.5z
					 M279.8,287.1L279.8,287.1c0.2,1,1,1.7,2.1,1.7c0.8,0,1.4-0.2,1.8-0.7h1.9c-0.6,1.4-1.9,2.3-3.7,2.3c-2.4,0-4-1.7-4-3.9
					c0-2.3,1.7-3.9,4-3.9c2.4,0,4,1.7,4,3.9v0.6H279.8z M279.8,285.7L279.8,285.7l4.2,0v0c-0.3-0.9-1-1.5-2.1-1.5
					C280.9,284.2,280.1,284.8,279.8,285.7L279.8,285.7z M293.4,286L293.4,286c0-2.3-1.3-3.4-3.3-3.4c-2,0-3.3,1.1-3.3,3.3v4.3h1.8
					v-4.3c0-1.2,0.6-1.6,1.5-1.6c0.9,0,1.5,0.4,1.5,1.6v0.1H293.4z"/>
			</g>
			<g>
				<path class="st87" d="M204.6,194.6h0.1h0.3h0.5h0.6h0.7h0.9h1h1.2h1.3h1.5h1.6h1.7h1.9h2h2.1h2.2h2.3h2.4h2.4h2.7h2.7h2.7h2.9
					h2.9h2.9h3h3.1h3.1h3.1h3.1h3.1h3.2h3.1h3.1h3.1h3.1h3.1h3.1h3h3h2.9h2.9h2.8h2.7h2.7h2.6h2.4h2.3h2.3h2.1h2h2h1.7h1.7h1.5h1.4
					h1.3h1.1h0.9h0.8h0.7h0.5h0.4h0.2h0.1 M266.3,78.3l4.3-0.1l4.3,0.1 M204,194v0.1l0.1,0.1l0.1,0.1l0.1,0.1l0.1,0.1l0.1,0.1h0.1
					h0.1 M337.2,194v0.1l-0.1,0.1l-0.1,0.1l-0.1,0.1l-0.1,0.1l-0.1,0.1h-0.1h-0.1"/>
				<path class="st88" d="M337.1,182.1l-0.1-5.2v-5l-0.1-4.6l-0.1-5.5l-0.1-5l-0.1-4.7l-0.1-4.3l-0.1-4.1l-0.3-5.3l-0.3-5l-0.6-4.6
					l-0.6-4.3l-0.8-4.1l-1-3.8l-1.3-3.7l-1.5-3.6l-2.3-4.4l-2.7-4.1l-3.2-3.8l-3.6-3.5l-4.1-3.1l-4.3-2.8l-3.8-2l-4.1-1.7l-4.1-1.5
					l-4.2-1.3l-4.2-1l-4.1-0.7l-3.8-0.6l-3.5-0.3l-3-0.1h-8.8l-3,0.1l-3.5,0.3l-3.8,0.6l-4.1,0.7l-4.2,1l-4.2,1.3l-4.1,1.5l-4.1,1.7
					l-3.8,2l-4.3,2.8l-4.1,3.1l-3.6,3.5l-3.2,3.8l-2.7,4.1l-2.3,4.4l-1.5,3.6l-1.3,3.7l-1,3.8l-0.8,4.1l-0.6,4.3l-0.6,4.6l-0.3,5
					l-0.3,5.3l-0.1,4.1l-0.1,4.3l-0.1,4.7l-0.1,5l-0.1,5.5l-0.1,4.6v5l-0.1,5.2l-0.1,5.7l-0.1,6.1h133.3v-6.1L337.1,182.1z"/>
			</g>
			<path class="st88" d="M337.3,197.3l-0.1-0.5l-0.1-0.5l-0.1-0.6l-0.1-0.5l-0.2-0.4l-0.2-0.5v-0.1v-0.1h-0.1v-0.1l-0.1-0.1V194V194
				l-0.1-0.1l-0.8-2.2l-0.8-2.9l-0.1-0.3l-0.1-0.3L334,188l-0.2-0.3l-0.2-0.1l-0.3-0.1l-0.2-0.1c0.6-0.3,1.1-0.6,1.1-1.1l-0.3-7
				l-0.3-5.9l-0.3-5.4l-0.3-4.8l-0.5-4.1l-0.6-3.6l-0.8-3.1l-1.3-3.3l-1.7-2.5l-2.2-2l-2.6-1.7l-3.1-1.6l-3.6-1.7l-1.7-0.7l-0.1-0.1
				l-3.6-1.8l-0.5-0.2l-0.4-0.3l-0.5-0.2l-0.5-0.3l-0.6-0.3l-1.8-0.9l-4.3-2.5l-3.6-2.4l-3.1-2.3l-2.6-2.1l-3.8-4l-2.9-4.1l-1.8-3.6
				l-1.1-3.6l-0.5-3.8l0.1-2.6l0.3-2.9l0.5-4l0.2-4.1l-0.1-1.5l-0.2-1.6l-0.3-1.3l-0.6-1.5l-0.8-1.5l-1-1.5l-1.6-1.6l-2-1.3
				l-1.3-0.6l-1.6-0.4l-1.6-0.2l-2-0.1h-0.1h-0.1h-0.1h-0.1h-0.1h-0.1h-0.1h-0.1h-0.1h-0.1h-0.1h-0.1l-2,0.1l-1.6,0.2l-1.6,0.4
				l-1.3,0.6l-2,1.3l-1.6,1.6l-1,1.5l-0.8,1.5l-0.6,1.5l-0.3,1.3l-0.2,1.6l-0.1,1.5l0.2,4.1l0.5,4l0.3,2.9l0.1,2.6l-0.5,3.8
				l-1.1,3.6l-1.8,3.6l-2.9,4.1l-3.8,4l-2.6,2.1l-3.1,2.3l-3.6,2.4l-4.3,2.5l-1.8,0.9L232,136l-0.5,0.3l-0.5,0.2l-0.4,0.3l-0.5,0.2
				l-3.6,1.8l-0.1,0.1l-1.7,0.7l-3.6,1.7l-3.1,1.6l-2.6,1.7l-2.2,2l-1.7,2.5l-1.3,3.3l-0.8,3.1l-0.6,3.6l-0.5,4.1L208,168l-0.3,5.4
				l-0.3,5.9l-0.3,7c0,0.5,0.5,0.8,1.1,1.1l-0.2,0.1l-0.3,0.1l-0.2,0.1l-0.2,0.3l-0.2,0.2l-0.1,0.3l-0.1,0.3l-0.8,2.9l-0.8,2.2
				L205,194v0.1v0.1l-0.1,0.1v0.1h-0.1v0.1v0.1l-0.2,0.5l-0.2,0.4l-0.1,0.5l-0.1,0.6l-0.1,0.5l-0.1,0.5l-0.1,0.5v0.6v67.9l0.1,2.9
				l0.1,9.1l0.1,8.3l0.1,7.6l0.1,6.9l0.1,6.4l0.2,5.7l0.2,5.2l0.3,5.1l0.3,4.5l0.3,4.1l0.5,3.6l0.6,3.2l0.9,4.1l1.2,3.5l1.4,3.1
				l1.7,2.9l2,2.7l2.2,2.8l0.5,0.5l0.6,0.4l1.2,0.1h0.1h0.4h0.9h1.3h1.8h2.5h3.1h41.5h41.5h3.1h2.5h1.8h1.3h0.9h0.4h0.1l1.2-0.1
				l0.6-0.4l0.5-0.5l2.2-2.8l2-2.7l1.7-2.9l1.4-3.1l1.2-3.5l0.9-4.1l0.6-3.2l0.5-3.6l0.3-4.1l0.3-4.5l0.3-5.1l0.2-5.2l0.2-5.7
				l0.1-6.4l0.1-6.9l0.1-7.6l0.1-8.3l0.1-9.1l0.1-2.9v-67.9v-0.6L337.3,197.3z"/>
			<line class="st87" x1="247.9" y1="125.4" x2="293.2" y2="125.4"/>
			<line class="st87" x1="226.5" y1="138.8" x2="314.7" y2="138.8"/>
			<line class="st88" x1="208.1" y1="187.4" x2="333.1" y2="187.4"/>
			<line class="st87" x1="203.8" y1="198.4" x2="337.3" y2="198.4"/>
			<line class="st85" x1="204.7" y1="269" x2="336.5" y2="269"/>
			<line class="st88" x1="224.7" y1="139.5" x2="316.5" y2="139.5"/>
			<line class="st87" x1="247.9" y1="128.8" x2="293.2" y2="128.8"/>
			<line class="st87" x1="247.9" y1="132.1" x2="293.2" y2="132.1"/>
			<line class="st87" x1="233.1" y1="135.4" x2="308.1" y2="135.4"/>
			<line class="st87" x1="243.9" y1="128.8" x2="297.3" y2="128.8"/>
			<line class="st87" x1="238.9" y1="132.1" x2="302.3" y2="132.1"/>
			<g>
				<path class="st87" d="M257.4,125.1c-0.3,0-0.7-0.1-0.9-0.4c-0.6-0.5-0.6-1.4-0.1-2c6-6.6,6.6-19.9,4.1-25.7
					c-0.3-0.7,0-1.5,0.7-1.8c0.7-0.3,1.5,0,1.8,0.7c2.8,6.3,2.4,21-4.6,28.7C258.1,124.9,257.7,125.1,257.4,125.1z"/>
				<path class="st87" d="M283.8,125.1c0.3,0,0.7-0.1,0.9-0.4c0.6-0.5,0.6-1.4,0.1-2c-6-6.6-6.6-19.9-4.1-25.7
					c0.3-0.7,0-1.5-0.7-1.8c-0.7-0.3-1.5,0-1.8,0.7c-2.8,6.3-2.4,21,4.6,28.7C283.1,124.9,283.4,125.1,283.8,125.1z"/>
			</g>
		</g>
	</g>
	<g>
		<path class="st15" d="M419.8,255.4h-34.9c-8,0-14.5-6.5-14.5-14.5V206c0-8,6.5-14.5,14.5-14.5h34.9c8,0,14.5,6.5,14.5,14.5v34.9
			C434.3,248.9,427.8,255.4,419.8,255.4z"/>
		<g>
			<path class="st53" d="M384.7,231.3c-3.7,0-6.4-2.8-6.4-6.8v-5c0-4,2.7-6.8,6.4-6.8s6.4,2.8,6.4,6.8v5
				C391.1,228.6,388.4,231.3,384.7,231.3z M384.7,229.2c2.5,0,4.2-1.7,4.2-4.6v-5c0-2.9-1.8-4.6-4.2-4.6c-2.4,0-4.2,1.7-4.2,4.6v5
				C380.6,227.5,382.3,229.2,384.7,229.2z"/>
			<path class="st53" d="M394.7,218.4h2.2v2c0.7-1.3,2.1-2.2,3.8-2.2c1.9,0,3.3,1,3.9,2.7c0.7-1.7,2.3-2.7,4.2-2.7
				c2.8,0,4.4,2.1,4.4,5.2v7.8h-2.2v-7.5c0-2.1-0.9-3.5-2.5-3.5c-2.1,0-3.5,1.8-3.5,4.6v6.3h-2.2v-7.5c0-2.1-0.8-3.5-2.5-3.5
				c-2.1,0-3.5,1.8-3.5,4.6v6.3h-2.2V218.4z"/>
			<path class="st53" d="M416.1,222.7h4.4v-4.4h2v4.4h4.4v2h-4.4v4.4h-2v-4.4h-4.4V222.7z"/>
		</g>
	</g>
	<g>
		<g>
			<path class="st15" d="M419.8,332.8h-34.9c-8,0-14.5-6.5-14.5-14.5v-34.9c0-8,6.5-14.5,14.5-14.5h34.9c8,0,14.5,6.5,14.5,14.5
				v34.9C434.3,326.3,427.8,332.8,419.8,332.8z"/>
		</g>
		<g>
			<path class="st53" d="M393.2,279.6c0,0,6.9,9.3,6.9,14.5c0,3.8-3.1,6.9-6.9,6.9s-6.9-3.1-6.9-6.9
				C386.2,288.9,393.2,279.6,393.2,279.6z"/>
		</g>
		<g>
			<path class="st53" d="M411.3,282.3c2.2,3.2,5.4,8.6,5.4,11.8c0,3-2.4,5.4-5.4,5.4c-3,0-5.4-2.4-5.4-5.4
				C406,291,409.1,285.6,411.3,282.3 M411.3,279.6c0,0-6.9,9.3-6.9,14.5c0,3.8,3.1,6.9,6.9,6.9c3.8,0,6.9-3.1,6.9-6.9
				C418.2,288.9,411.3,279.6,411.3,279.6L411.3,279.6z"/>
		</g>
		<g>
			<path class="st53" d="M393.2,305.2c2.2,3.2,5.4,8.6,5.4,11.8c0,3-2.4,5.4-5.4,5.4c-3,0-5.4-2.4-5.4-5.4
				C387.8,313.8,391,308.4,393.2,305.2 M393.2,302.5c0,0-6.9,9.3-6.9,14.5c0,3.8,3.1,6.9,6.9,6.9c3.8,0,6.9-3.1,6.9-6.9
				C400.1,311.8,393.2,302.5,393.2,302.5L393.2,302.5z"/>
		</g>
		<g>
			<path class="st53" d="M411.5,305.2c2.2,3.2,5.4,8.6,5.4,11.8c0,3-2.4,5.4-5.4,5.4c-3,0-5.4-2.4-5.4-5.4
				C406.2,313.8,409.4,308.4,411.5,305.2 M411.5,302.5c0,0-6.9,9.3-6.9,14.5c0,3.8,3.1,6.9,6.9,6.9s6.9-3.1,6.9-6.9
				C418.4,311.8,411.5,302.5,411.5,302.5L411.5,302.5z"/>
		</g>
	</g>
	<g>
		<path class="st15" d="M419.8,177.9h-34.9c-8,0-14.5-6.5-14.5-14.5v-34.9c0-8,6.5-14.5,14.5-14.5h34.9c8,0,14.5,6.5,14.5,14.5v34.9
			C434.3,171.4,427.8,177.9,419.8,177.9z"/>
		<g>
			<path class="st53" d="M385.5,148.5c-3.5,0-6.1-2.7-6.1-5.9c0-1.9,0.9-3.3,2-4.6l6.6-7.7h2.8l-5.5,6.5c0.3,0,0.5-0.1,0.7-0.1
				c3,0,5.6,2.7,5.6,5.8C391.6,145.8,389,148.5,385.5,148.5z M385.5,146.4c2.2,0,3.9-1.8,3.9-3.9s-1.7-3.9-3.9-3.9
				c-2.2,0-3.9,1.8-3.9,3.9S383.3,146.4,385.5,146.4z"/>
			<path class="st53" d="M406.4,148.5c-3.8,0-6.7-2.9-6.7-6.6s2.8-6.6,6.7-6.6c3.8,0,6.6,2.9,6.6,6.6S410.3,148.5,406.4,148.5z
				 M406.4,146.5c2.6,0,4.4-2,4.4-4.6s-1.8-4.6-4.4-4.6s-4.4,2-4.4,4.6S403.8,146.5,406.4,146.5z"/>
			<path class="st53" d="M415,146.5l7.3-9h-7.2v-2h10v1.8l-7.2,8.9h7.5v2H415V146.5z"/>
			<path class="st53" d="M384.8,155.4h-1.9l1-1.2h2.2v10h-1.2V155.4z"/>
			<path class="st53" d="M388.2,164.2l4.7-8.8h-5.1v-1.2h6.6v1l-4.8,9H388.2z"/>
			<path class="st53" d="M398.5,164.3c-2,0-3.4-1.3-3.4-3.1c0-1.2,0.6-2.1,1.6-2.6c-0.6-0.4-1-1.1-1-2c0-1.5,1.2-2.6,2.8-2.6
				c1.6,0,2.8,1.1,2.8,2.6c0,0.8-0.4,1.5-1,2c1,0.5,1.6,1.4,1.6,2.6C401.8,163,400.5,164.3,398.5,164.3z M398.5,163.2
				c1.3,0,2.1-0.9,2.1-2c0-1.1-0.8-2-2.1-2c-1.3,0-2.1,0.9-2.1,2C396.3,162.3,397.2,163.2,398.5,163.2z M398.5,158.1
				c1,0,1.6-0.7,1.6-1.5c0-0.8-0.6-1.5-1.6-1.5c-1,0-1.6,0.6-1.6,1.5C396.9,157.4,397.5,158.1,398.5,158.1z"/>
			<path class="st53" d="M407,157.2h1.2v1.1c0.4-0.7,1.2-1.2,2.1-1.2c1.1,0,1.8,0.6,2.2,1.5c0.4-0.9,1.3-1.5,2.3-1.5
				c1.5,0,2.5,1.1,2.5,2.9v4.3h-1.2v-4.1c0-1.1-0.5-1.9-1.4-1.9c-1.1,0-1.9,1-1.9,2.6v3.5h-1.2v-4.1c0-1.1-0.5-1.9-1.4-1.9
				c-1.1,0-1.9,1-1.9,2.6v3.5H407V157.2z"/>
			<path class="st53" d="M419.5,153.6h1.2v10.6h-1.2V153.6z"/>
		</g>
	</g>
</g>
</svg>
