<?xml version="1.0" encoding="utf-8"?>
<!-- Generator: Adobe Illustrator 27.2.0, SVG Export Plug-In . SVG Version: 6.00 Build 0)  -->
<svg version="1.1" id="Layer_1" xmlns="http://www.w3.org/2000/svg" xmlns:xlink="http://www.w3.org/1999/xlink" x="0px" y="0px"
	 viewBox="0 0 476.2 380" style="enable-background:new 0 0 476.2 380;" xml:space="preserve">
<style type="text/css">
	.st0{fill:#FFFFFF;stroke:#808184;stroke-width:0.5;stroke-miterlimit:10;}
	.st1{fill:none;stroke:#808184;stroke-width:0.5;stroke-miterlimit:10;}
	.st2{fill:#808184;}
	.st3{fill:#FFFFFF;stroke:#808184;stroke-width:0.25;stroke-miterlimit:10;}
	.st4{fill:none;stroke:#808184;stroke-width:0.25;stroke-miterlimit:10;}
	.st5{fill:none;stroke:#808184;stroke-width:0.378;stroke-miterlimit:10;}
	.st6{fill:none;stroke:#808184;stroke-width:0.189;stroke-miterlimit:10;}
	.st7{fill:#FFFFFF;stroke:#808184;stroke-width:0.378;stroke-miterlimit:10;}
	.st8{fill:#808184;stroke:#808184;stroke-width:9.451170e-02;stroke-miterlimit:10;}
	.st9{fill:#FFFFFF;stroke:#808285;stroke-width:0.5;stroke-miterlimit:10;}
	.st10{fill:none;stroke:#808285;stroke-width:0.25;stroke-miterlimit:10;}
	.st11{fill:#808285;}
	.st12{fill:none;stroke:#808285;stroke-width:0.5103;stroke-miterlimit:10;}
	.st13{fill:none;stroke:#808285;stroke-width:0.1722;stroke-miterlimit:10;}
	.st14{fill:none;stroke:#808285;stroke-width:0.5081;stroke-miterlimit:10;}
	.st15{fill:#666766;}
	.st16{fill:none;stroke:#808285;stroke-width:0.1722;stroke-linecap:round;stroke-linejoin:round;stroke-miterlimit:10;}
	.st17{fill:none;stroke:#808285;stroke-width:0.5081;stroke-linecap:round;stroke-linejoin:round;stroke-miterlimit:10;}
	.st18{fill:none;stroke:#808285;stroke-width:0.6888;stroke-miterlimit:10;}
	.st19{fill:none;stroke:#808285;stroke-width:0.2913;stroke-linecap:round;stroke-linejoin:round;stroke-miterlimit:10;}
	.st20{fill:#FFFFFF;stroke:#808285;stroke-width:0.2913;stroke-linecap:round;stroke-linejoin:round;stroke-miterlimit:10;}
	.st21{fill:none;stroke:#808285;stroke-width:0.6164;stroke-miterlimit:10;}
	.st22{fill:none;stroke:#010101;stroke-width:0.1389;stroke-linecap:round;stroke-linejoin:round;stroke-miterlimit:10;}
	.st23{fill:none;stroke:#010101;stroke-width:1.959448e-02;stroke-miterlimit:10;}
	.st24{fill:none;stroke:#010101;stroke-width:7.347929e-02;stroke-linecap:round;stroke-linejoin:round;stroke-miterlimit:10;}
	.st25{fill:#888B8D;}
	.st26{fill:none;stroke:#888B8D;stroke-width:9.797239e-02;stroke-linecap:round;stroke-linejoin:round;stroke-miterlimit:10;}
	.st27{fill-rule:evenodd;clip-rule:evenodd;fill:#888B8D;}
	.st28{fill:#231F20;}
	.st29{fill:none;stroke:#010101;stroke-width:9.797239e-02;stroke-linecap:round;stroke-linejoin:round;stroke-miterlimit:10;}
	.st30{fill:none;stroke:#000000;stroke-width:0.1959;stroke-miterlimit:10;}
	.st31{fill:#898A8D;}
	.st32{fill:none;}
	.st33{fill:none;stroke:#010101;stroke-width:0.1959;stroke-linecap:round;stroke-linejoin:round;stroke-miterlimit:10;}
	.st34{fill:none;stroke:#010101;stroke-width:4.898620e-02;stroke-linecap:round;stroke-linejoin:round;stroke-miterlimit:10;}
	.st35{fill:#010101;}
	.st36{fill:none;stroke:#F15A29;stroke-width:9.797239e-02;stroke-miterlimit:10;}
	.st37{fill:none;stroke:#F15A29;stroke-width:9.797239e-02;stroke-miterlimit:10;stroke-dasharray:0.3857,0.3857,0.3857,0.3857;}
	
		.st38{fill:none;stroke:#F15A29;stroke-width:9.797239e-02;stroke-miterlimit:10;stroke-dasharray:0.3857,0.3857,0.3857,0.3857,0.3857,0.3857;}
	.st39{fill:none;stroke:#F15A29;stroke-width:9.797239e-02;stroke-miterlimit:10;stroke-dasharray:0.3977,0.3977,0.3977,0.3977;}
	
		.st40{fill:none;stroke:#F15A29;stroke-width:9.797239e-02;stroke-miterlimit:10;stroke-dasharray:0.3977,0.3977,0.3977,0.3977,0.3977,0.3977;}
	.st41{fill:#F15A29;}
	.st42{clip-path:url(#SVGID_00000098903046570064147470000015405342491173864863_);}
	.st43{fill:none;stroke:#010101;stroke-width:4.815879e-02;stroke-miterlimit:10;}
	.st44{fill:none;stroke:#010101;stroke-width:5.111984e-02;stroke-miterlimit:10;}
	.st45{fill:#C8C8C8;}
	.st46{fill:none;stroke:#010101;stroke-width:1.599009e-02;stroke-miterlimit:10;}
	.st47{fill:none;stroke:#010101;stroke-width:0.1104;stroke-linecap:round;stroke-linejoin:round;stroke-miterlimit:10;}
	.st48{fill:none;stroke:#808285;stroke-width:0.1604;stroke-miterlimit:10;}
	.st49{fill:#E8E8E8;stroke:#808285;stroke-width:0.6888;stroke-miterlimit:10;}
	.st50{fill:none;stroke:#808285;stroke-width:0.5;stroke-miterlimit:10;}
	.st51{fill:none;stroke:#010101;stroke-width:3.895216e-02;stroke-miterlimit:10;}
	.st52{opacity:0.84;fill:#FFFFFF;}
	.st53{fill:#FFFFFF;}
	.st54{fill:none;stroke:#808285;stroke-width:0.6746;stroke-linecap:round;stroke-linejoin:round;stroke-miterlimit:10;}
	.st55{fill:none;stroke:#808285;stroke-width:1.9905;stroke-linecap:round;stroke-linejoin:round;stroke-miterlimit:10;}
	.st56{fill:none;stroke:#808285;stroke-width:1.9905;stroke-miterlimit:10;}
	.st57{fill:none;stroke:#808285;stroke-width:0.6746;stroke-miterlimit:10;}
	.st58{fill:none;stroke:#808285;stroke-width:2.6985;stroke-miterlimit:10;}
	.st59{clip-path:url(#SVGID_00000157991556766282805150000004862050067803434392_);}
	.st60{clip-path:url(#SVGID_00000057143182004506731260000012447922339458421648_);}
	.st61{clip-path:url(#SVGID_00000085208467982607368500000018137773210280077712_);}
	.st62{clip-path:url(#SVGID_00000009586504038763448460000003361432099080137875_);}
	.st63{clip-path:url(#SVGID_00000041261664542382134910000008492642783965303471_);}
	.st64{fill:none;stroke:#808285;stroke-width:1.2427;stroke-miterlimit:10;}
	.st65{fill:none;stroke:#808285;stroke-width:0.4193;stroke-linecap:round;stroke-linejoin:round;stroke-miterlimit:10;}
	.st66{fill:none;stroke:#808285;stroke-width:1.2372;stroke-linecap:round;stroke-linejoin:round;stroke-miterlimit:10;}
	.st67{fill:none;stroke:#808285;stroke-width:1.2372;stroke-miterlimit:10;}
	.st68{fill:none;stroke:#808285;stroke-width:0.4193;stroke-miterlimit:10;}
	.st69{fill:none;stroke:#808285;stroke-width:1.6773;stroke-miterlimit:10;}
	.st70{fill:none;stroke:#808285;stroke-width:0.7092;stroke-linecap:round;stroke-linejoin:round;stroke-miterlimit:10;}
	.st71{fill:#FFFFFF;stroke:#808285;stroke-width:0.7092;stroke-linecap:round;stroke-linejoin:round;stroke-miterlimit:10;}
	.st72{fill:none;stroke:#808285;stroke-width:1.501;stroke-miterlimit:10;}
	.st73{fill:#84C4C0;}
	.st74{fill:none;stroke:#808285;stroke-width:2.4656;stroke-miterlimit:10;}
	.st75{fill:none;stroke:#808285;stroke-width:0.832;stroke-miterlimit:10;}
	.st76{fill:none;stroke:#808285;stroke-width:2.4548;stroke-miterlimit:10;}
	.st77{fill:none;stroke:#808285;stroke-width:0.832;stroke-linecap:round;stroke-linejoin:round;stroke-miterlimit:10;}
	.st78{fill:none;stroke:#808285;stroke-width:2.4548;stroke-linecap:round;stroke-linejoin:round;stroke-miterlimit:10;}
	.st79{fill:none;stroke:#808285;stroke-width:3.328;stroke-miterlimit:10;}
	.st80{fill:none;stroke:#808285;stroke-width:1.4072;stroke-linecap:round;stroke-linejoin:round;stroke-miterlimit:10;}
	.st81{fill:none;stroke:#808285;stroke-width:2.9781;stroke-miterlimit:10;}
	.st82{fill:#FFFFFF;stroke:#808285;stroke-width:1.4072;stroke-linecap:round;stroke-linejoin:round;stroke-miterlimit:10;}
	.st83{fill:#05A6A1;}
	.st84{fill:none;stroke:#666766;stroke-width:0.832;stroke-miterlimit:10;}
	.st85{fill:none;stroke:#666766;stroke-width:2.4548;stroke-miterlimit:10;}
	.st86{fill:none;stroke:#666766;stroke-width:2.4656;stroke-miterlimit:10;}
	.st87{fill:none;stroke:#666766;stroke-width:0.832;stroke-linecap:round;stroke-linejoin:round;stroke-miterlimit:10;}
	.st88{fill:none;stroke:#666766;stroke-width:2.4548;stroke-linecap:round;stroke-linejoin:round;stroke-miterlimit:10;}
	.st89{fill:none;stroke:#666766;stroke-width:3.328;stroke-miterlimit:10;}
	.st90{fill:none;stroke:#666766;stroke-width:1.4071;stroke-linecap:round;stroke-linejoin:round;stroke-miterlimit:10;}
	.st91{fill:none;stroke:#666766;stroke-width:2.9781;stroke-miterlimit:10;}
	.st92{fill:#FFFFFF;stroke:#666766;stroke-width:1.4071;stroke-linecap:round;stroke-linejoin:round;stroke-miterlimit:10;}
</style>
<g>
	<g>
		<g id="XMLID_00000027581487984554188360000002139037296738587816_">
			<g>
				<polyline class="st84" points="154.9,356.3 155,356.3 155.4,356.3 156.1,356.3 157.1,356.3 158.3,356.3 159.9,356.3 
					161.7,356.3 163.7,356.3 166,356.3 168.6,356.3 171.3,356.3 174.3,356.3 177.6,356.3 181,356.3 184.6,356.3 188.4,356.3 
					192.4,356.3 196.5,356.3 200.8,356.3 205.2,356.3 209.6,356.3 214.2,356.3 218.9,356.3 223.6,356.3 228.4,356.3 233.2,356.3 
					238.1,356.3 				"/>
				<polyline class="st84" points="238.1,356.3 242.9,356.3 247.8,356.3 252.5,356.3 257.3,356.3 262,356.3 266.6,356.3 
					271.1,356.3 275.5,356.3 279.7,356.3 283.9,356.3 287.8,356.3 291.6,356.3 295.2,356.3 298.7,356.3 301.9,356.3 304.9,356.3 
					307.7,356.3 310.2,356.3 312.5,356.3 314.5,356.3 316.3,356.3 317.8,356.3 319.1,356.3 320.1,356.3 320.8,356.3 321.2,356.3 
					321.4,356.3 				"/>
				<polyline class="st85" points="238.1,20.8 240.9,20.8 243.7,20.9 246.4,21.1 249.2,21.3 252,21.7 254.7,22.1 257.5,22.5 
					260.2,23 				"/>
				<polyline class="st85" points="238.1,20.8 235.3,20.8 232.6,20.9 229.8,21.1 227,21.3 224.2,21.7 221.5,22.1 218.8,22.5 216,23 
									"/>
				<polyline class="st85" points="318.2,112.9 318,103.3 317.6,94.9 317.1,87.4 316.4,80.6 315.4,74.4 314.1,68.8 312.6,63.5 
					309.8,56.9 306.4,51 302.4,45.8 298.1,41.2 292.5,36.6 286.4,32.7 280.1,29.4 273.6,26.7 266.9,24.6 260.2,23 				"/>
				<polyline class="st85" points="158.1,112.9 158.3,103.3 158.6,94.9 159.1,87.4 159.8,80.6 160.8,74.4 162.1,68.8 163.7,63.5 
					166.5,56.9 169.8,51 173.8,45.8 178.2,41.2 183.8,36.6 189.8,32.7 196.1,29.4 202.7,26.7 209.3,24.6 216,23 				"/>
				<polyline class="st85" points="238.1,359.2 242.9,359.2 247.7,359.2 252.4,359.2 257.1,359.2 261.7,359.2 266.3,359.2 
					270.7,359.2 275,359.2 279.2,359.2 283.3,359.2 287.1,359.2 290.8,359.2 294.3,359.2 297.5,359.2 300.6,359.2 303.5,359.2 
					306.1,359.2 308.4,359.2 310.5,359.2 312.4,359.2 314,359.2 315.3,359.2 316.2,359.2 317,359.2 317.4,359.2 317.6,359.2 				"/>
				<polyline class="st85" points="158.7,359.2 158.8,359.2 159.2,359.2 160,359.2 161,359.2 162.3,359.2 163.8,359.2 165.6,359.2 
					167.7,359.2 170.1,359.2 172.8,359.2 175.6,359.2 178.6,359.2 182,359.2 185.4,359.2 189.1,359.2 193,359.2 197,359.2 
					201.2,359.2 205.5,359.2 210,359.2 214.5,359.2 219.1,359.2 223.8,359.2 228.5,359.2 233.3,359.2 238.1,359.2 				"/>
				<line class="st85" x1="157.7" y1="359.2" x2="158.7" y2="359.2"/>
				<line class="st85" x1="317.6" y1="359.2" x2="318.5" y2="359.2"/>
				<line class="st85" x1="158.1" y1="112.9" x2="154.9" y2="356.3"/>
				<line class="st85" x1="321.4" y1="356.3" x2="318.2" y2="112.9"/>
				<polyline class="st85" points="154.9,356.3 154.9,356.8 155.1,357.4 155.3,357.8 155.7,358.3 156.1,358.6 156.6,358.9 
					157.1,359.1 157.7,359.2 				"/>
				<polyline class="st85" points="318.5,359.2 319.1,359.1 319.6,358.9 320.1,358.6 320.5,358.3 320.9,357.8 321.1,357.4 
					321.3,356.8 321.4,356.3 				"/>
			</g>
		</g>
	</g>
	<g id="Ember_Logo_-_Gray_00000114776118600074242970000011650422293903507374_">
		<g>
			<g>
				<path class="st15" d="M217.6,338.4L217.6,338.4c0.2,1,1,1.6,2.1,1.6c0.8,0,1.3-0.2,1.7-0.7h1.9c-0.5,1.4-1.9,2.3-3.6,2.3
					c-2.3,0-3.9-1.6-3.9-3.8c0-2.2,1.6-3.8,3.9-3.8c2.3,0,3.9,1.6,3.9,3.8v0.6H217.6z M217.7,337L217.7,337l4,0v0
					c-0.3-0.9-1-1.4-2-1.4C218.7,335.6,218,336.1,217.7,337 M230.9,341.4v-4.1c0-1.2,0.6-1.7,1.5-1.7c0.9,0,1.5,0.5,1.5,1.7v4.1h1.7
					v-4.1c0-2.3-1.3-3.3-3-3.3c-1.1,0-2,0.5-2.5,1.3h0c-0.5-0.8-1.4-1.3-2.5-1.3c-1.7,0-3,1-3,3.3v4.1h1.7v-4.1
					c0-1.2,0.6-1.7,1.5-1.7c0.8,0,1.5,0.5,1.5,1.7v4.1H230.9z M236.4,331h1.7v4.2h0c0.5-0.7,1.3-1.2,2.4-1.2c1.7,0,3.6,1.2,3.6,3.8
					c0,2.2-1.6,3.8-3.9,3.8c-2.3,0-3.9-1.5-3.9-3.9V331z M242.4,337.8c0-1.3-0.9-2.2-2.1-2.2c-1.3,0-2.1,0.9-2.1,2.2
					c0,1.3,0.9,2.2,2.1,2.2C241.5,340,242.4,339.1,242.4,337.8 M246.8,338.4L246.8,338.4c0.2,1,1,1.6,2.1,1.6c0.8,0,1.3-0.2,1.7-0.7
					h1.9c-0.5,1.4-1.9,2.3-3.6,2.3c-2.3,0-3.9-1.6-3.9-3.8c0-2.2,1.6-3.8,3.9-3.8c2.3,0,3.9,1.6,3.9,3.8v0.6H246.8z M246.8,337
					L246.8,337l4,0v0c-0.3-0.9-1-1.4-2-1.4C247.8,335.6,247.1,336.1,246.8,337 M259.9,337.3L259.9,337.3c0-2.3-1.3-3.3-3.2-3.3
					c-1.9,0-3.2,1-3.2,3.2v4.2h1.7v-4.2c0-1.2,0.6-1.6,1.4-1.6c0.9,0,1.4,0.4,1.4,1.6v0.1H259.9z"/>
			</g>
		</g>
	</g>
</g>
</svg>
