<?xml version="1.0" encoding="utf-8"?>
<!-- Generator: Adobe Illustrator 27.2.0, SVG Export Plug-In . SVG Version: 6.00 Build 0)  -->
<svg version="1.1" id="Layer_1" xmlns="http://www.w3.org/2000/svg" xmlns:xlink="http://www.w3.org/1999/xlink" x="0px" y="0px"
	 viewBox="0 0 476.2 380" style="enable-background:new 0 0 476.2 380;" xml:space="preserve">
<style type="text/css">
	.st0{fill:#FFFFFF;stroke:#808184;stroke-width:0.5;stroke-miterlimit:10;}
	.st1{fill:none;stroke:#808184;stroke-width:0.5;stroke-miterlimit:10;}
	.st2{fill:#808184;}
	.st3{fill:#FFFFFF;stroke:#808184;stroke-width:0.25;stroke-miterlimit:10;}
	.st4{fill:none;stroke:#808184;stroke-width:0.25;stroke-miterlimit:10;}
	.st5{fill:none;stroke:#808184;stroke-width:0.378;stroke-miterlimit:10;}
	.st6{fill:none;stroke:#808184;stroke-width:0.189;stroke-miterlimit:10;}
	.st7{fill:#FFFFFF;stroke:#808184;stroke-width:0.378;stroke-miterlimit:10;}
	.st8{fill:#808184;stroke:#808184;stroke-width:9.451170e-02;stroke-miterlimit:10;}
	.st9{fill:#FFFFFF;stroke:#808285;stroke-width:0.5;stroke-miterlimit:10;}
	.st10{fill:none;stroke:#808285;stroke-width:0.25;stroke-miterlimit:10;}
	.st11{fill:#808285;}
	.st12{fill:none;stroke:#808285;stroke-width:0.5103;stroke-miterlimit:10;}
	.st13{fill:none;stroke:#808285;stroke-width:0.1722;stroke-miterlimit:10;}
	.st14{fill:none;stroke:#808285;stroke-width:0.5081;stroke-miterlimit:10;}
	.st15{fill:#666766;}
	.st16{fill:none;stroke:#808285;stroke-width:0.1722;stroke-linecap:round;stroke-linejoin:round;stroke-miterlimit:10;}
	.st17{fill:none;stroke:#808285;stroke-width:0.5081;stroke-linecap:round;stroke-linejoin:round;stroke-miterlimit:10;}
	.st18{fill:none;stroke:#808285;stroke-width:0.6888;stroke-miterlimit:10;}
	.st19{fill:none;stroke:#808285;stroke-width:0.2913;stroke-linecap:round;stroke-linejoin:round;stroke-miterlimit:10;}
	.st20{fill:#FFFFFF;stroke:#808285;stroke-width:0.2913;stroke-linecap:round;stroke-linejoin:round;stroke-miterlimit:10;}
	.st21{fill:none;stroke:#808285;stroke-width:0.6164;stroke-miterlimit:10;}
	.st22{fill:none;stroke:#010101;stroke-width:0.1389;stroke-linecap:round;stroke-linejoin:round;stroke-miterlimit:10;}
	.st23{fill:none;stroke:#010101;stroke-width:1.959448e-02;stroke-miterlimit:10;}
	.st24{fill:none;stroke:#010101;stroke-width:7.347929e-02;stroke-linecap:round;stroke-linejoin:round;stroke-miterlimit:10;}
	.st25{fill:#888B8D;}
	.st26{fill:none;stroke:#888B8D;stroke-width:9.797239e-02;stroke-linecap:round;stroke-linejoin:round;stroke-miterlimit:10;}
	.st27{fill-rule:evenodd;clip-rule:evenodd;fill:#888B8D;}
	.st28{fill:#231F20;}
	.st29{fill:none;stroke:#010101;stroke-width:9.797239e-02;stroke-linecap:round;stroke-linejoin:round;stroke-miterlimit:10;}
	.st30{fill:none;stroke:#000000;stroke-width:0.1959;stroke-miterlimit:10;}
	.st31{fill:#898A8D;}
	.st32{fill:none;}
	.st33{fill:none;stroke:#010101;stroke-width:0.1959;stroke-linecap:round;stroke-linejoin:round;stroke-miterlimit:10;}
	.st34{fill:none;stroke:#010101;stroke-width:4.898620e-02;stroke-linecap:round;stroke-linejoin:round;stroke-miterlimit:10;}
	.st35{fill:#010101;}
	.st36{fill:none;stroke:#F15A29;stroke-width:9.797239e-02;stroke-miterlimit:10;}
	.st37{fill:none;stroke:#F15A29;stroke-width:9.797239e-02;stroke-miterlimit:10;stroke-dasharray:0.3857,0.3857,0.3857,0.3857;}
	
		.st38{fill:none;stroke:#F15A29;stroke-width:9.797239e-02;stroke-miterlimit:10;stroke-dasharray:0.3857,0.3857,0.3857,0.3857,0.3857,0.3857;}
	.st39{fill:none;stroke:#F15A29;stroke-width:9.797239e-02;stroke-miterlimit:10;stroke-dasharray:0.3977,0.3977,0.3977,0.3977;}
	
		.st40{fill:none;stroke:#F15A29;stroke-width:9.797239e-02;stroke-miterlimit:10;stroke-dasharray:0.3977,0.3977,0.3977,0.3977,0.3977,0.3977;}
	.st41{fill:#F15A29;}
	.st42{clip-path:url(#SVGID_00000086682731028432729450000010978784532558091419_);}
	.st43{fill:none;stroke:#010101;stroke-width:4.815879e-02;stroke-miterlimit:10;}
	.st44{fill:none;stroke:#010101;stroke-width:5.111984e-02;stroke-miterlimit:10;}
	.st45{fill:#C8C8C8;}
	.st46{fill:none;stroke:#010101;stroke-width:1.599009e-02;stroke-miterlimit:10;}
	.st47{fill:none;stroke:#010101;stroke-width:0.1104;stroke-linecap:round;stroke-linejoin:round;stroke-miterlimit:10;}
	.st48{fill:none;stroke:#808285;stroke-width:0.1604;stroke-miterlimit:10;}
	.st49{fill:#E8E8E8;stroke:#808285;stroke-width:0.6888;stroke-miterlimit:10;}
	.st50{fill:none;stroke:#808285;stroke-width:0.5;stroke-miterlimit:10;}
	.st51{fill:none;stroke:#010101;stroke-width:3.895216e-02;stroke-miterlimit:10;}
	.st52{opacity:0.84;fill:#FFFFFF;}
	.st53{fill:#FFFFFF;}
	.st54{fill:none;stroke:#808285;stroke-width:0.6746;stroke-linecap:round;stroke-linejoin:round;stroke-miterlimit:10;}
	.st55{fill:none;stroke:#808285;stroke-width:1.9905;stroke-linecap:round;stroke-linejoin:round;stroke-miterlimit:10;}
	.st56{fill:none;stroke:#808285;stroke-width:1.9905;stroke-miterlimit:10;}
	.st57{fill:none;stroke:#808285;stroke-width:0.6746;stroke-miterlimit:10;}
	.st58{fill:none;stroke:#808285;stroke-width:2.6985;stroke-miterlimit:10;}
	.st59{clip-path:url(#SVGID_00000079443761815933997130000014443256958999850925_);}
	.st60{clip-path:url(#SVGID_00000002354506966500452800000016689114617386308264_);}
	.st61{clip-path:url(#SVGID_00000167377674931860511220000006018495211548910512_);}
	.st62{clip-path:url(#SVGID_00000085953702154552986660000009656521296671225478_);}
	.st63{clip-path:url(#SVGID_00000106835292587304809650000009454372716640663743_);}
	.st64{fill:none;stroke:#808285;stroke-width:1.2427;stroke-miterlimit:10;}
	.st65{fill:none;stroke:#808285;stroke-width:0.4193;stroke-linecap:round;stroke-linejoin:round;stroke-miterlimit:10;}
	.st66{fill:none;stroke:#808285;stroke-width:1.2372;stroke-linecap:round;stroke-linejoin:round;stroke-miterlimit:10;}
	.st67{fill:none;stroke:#808285;stroke-width:1.2372;stroke-miterlimit:10;}
	.st68{fill:none;stroke:#808285;stroke-width:0.4193;stroke-miterlimit:10;}
	.st69{fill:none;stroke:#808285;stroke-width:1.6773;stroke-miterlimit:10;}
	.st70{fill:none;stroke:#808285;stroke-width:0.7092;stroke-linecap:round;stroke-linejoin:round;stroke-miterlimit:10;}
	.st71{fill:#FFFFFF;stroke:#808285;stroke-width:0.7092;stroke-linecap:round;stroke-linejoin:round;stroke-miterlimit:10;}
	.st72{fill:none;stroke:#808285;stroke-width:1.501;stroke-miterlimit:10;}
	.st73{fill:#84C4C0;}
	.st74{fill:none;stroke:#808285;stroke-width:2.4656;stroke-miterlimit:10;}
	.st75{fill:none;stroke:#808285;stroke-width:0.832;stroke-miterlimit:10;}
	.st76{fill:none;stroke:#808285;stroke-width:2.4548;stroke-miterlimit:10;}
	.st77{fill:none;stroke:#808285;stroke-width:0.832;stroke-linecap:round;stroke-linejoin:round;stroke-miterlimit:10;}
	.st78{fill:none;stroke:#808285;stroke-width:2.4548;stroke-linecap:round;stroke-linejoin:round;stroke-miterlimit:10;}
	.st79{fill:none;stroke:#808285;stroke-width:3.328;stroke-miterlimit:10;}
	.st80{fill:none;stroke:#808285;stroke-width:1.4072;stroke-linecap:round;stroke-linejoin:round;stroke-miterlimit:10;}
	.st81{fill:none;stroke:#808285;stroke-width:2.9781;stroke-miterlimit:10;}
	.st82{fill:#FFFFFF;stroke:#808285;stroke-width:1.4072;stroke-linecap:round;stroke-linejoin:round;stroke-miterlimit:10;}
	.st83{fill:#05A6A1;}
	.st84{fill:none;stroke:#666766;stroke-width:0.832;stroke-miterlimit:10;}
	.st85{fill:none;stroke:#666766;stroke-width:2.4548;stroke-miterlimit:10;}
	.st86{fill:none;stroke:#666766;stroke-width:2.4656;stroke-miterlimit:10;}
	.st87{fill:none;stroke:#666766;stroke-width:0.832;stroke-linecap:round;stroke-linejoin:round;stroke-miterlimit:10;}
	.st88{fill:none;stroke:#666766;stroke-width:2.4548;stroke-linecap:round;stroke-linejoin:round;stroke-miterlimit:10;}
	.st89{fill:none;stroke:#666766;stroke-width:3.328;stroke-miterlimit:10;}
	.st90{fill:none;stroke:#666766;stroke-width:1.4071;stroke-linecap:round;stroke-linejoin:round;stroke-miterlimit:10;}
	.st91{fill:none;stroke:#666766;stroke-width:2.9781;stroke-miterlimit:10;}
	.st92{fill:#FFFFFF;stroke:#666766;stroke-width:1.4071;stroke-linecap:round;stroke-linejoin:round;stroke-miterlimit:10;}
</style>
<g>
	<path class="st15" d="M252,319.9c0,1.5-1.2,2.7-2.7,2.7c-1.5,0-2.7-1.2-2.7-2.7c0-1.5,1.2-2.7,2.7-2.7
		C250.8,317.2,252,318.4,252,319.9z"/>
	<path class="st15" d="M263.1,319.9c0,1.5-1.2,2.7-2.7,2.7c-1.5,0-2.7-1.2-2.7-2.7c0-1.5,1.2-2.7,2.7-2.7
		C261.9,317.2,263.1,318.4,263.1,319.9z"/>
	<path class="st15" d="M218.7,319.9c0,1.5-1.2,2.7-2.7,2.7c-1.5,0-2.7-1.2-2.7-2.7c0-1.5,1.2-2.7,2.7-2.7
		C217.5,317.2,218.7,318.4,218.7,319.9z"/>
	<path class="st15" d="M229.8,319.9c0,1.5-1.2,2.7-2.7,2.7c-1.5,0-2.7-1.2-2.7-2.7c0-1.5,1.2-2.7,2.7-2.7
		C228.6,317.2,229.8,318.4,229.8,319.9z"/>
	<path class="st15" d="M240.9,319.9c0,1.5-1.2,2.7-2.7,2.7c-1.5,0-2.7-1.2-2.7-2.7c0-1.5,1.2-2.7,2.7-2.7
		C239.7,317.2,240.9,318.4,240.9,319.9z"/>
	<g id="XMLID_00000154412300873064852060000014058932565846387336_">
		<polygon class="st89" points="186.4,261.9 223.1,261.9 225.5,261.9 228,261.9 230.6,261.9 233.2,261.9 235.8,261.9 238.5,261.9 
			241,261.9 243.6,261.9 246.3,261.9 248.8,261.9 251.2,261.9 253.7,261.9 256,261.9 258.2,261.9 260.3,261.9 262.4,261.9 
			264.3,261.9 265.9,261.9 267.5,261.9 268.9,261.9 270.2,261.9 271.2,261.9 272.2,261.9 272.9,261.9 273.4,261.9 273.7,261.9 
			273.7,261.9 273.8,261.9 273.9,261.9 274.3,261.9 274.3,261.9 274.5,261.9 274.6,261.9 275,261.9 275.7,261.9 276.3,261.9 
			276.7,261.9 276.8,261.9 277.3,261.9 277.8,261.9 278.2,261.9 278.4,261.9 278.7,261.9 279.1,261.9 279.5,261.9 280.2,261.9 
			281.2,261.9 286.1,261.9 290.9,261.9 294.6,262.1 298.1,262.2 301.2,262.4 304.5,262.8 307.4,263.4 309.4,264 311.3,264.9 
			314.3,266.8 317.1,269.2 319,271.5 320.6,274 321.7,276.8 322.5,280 323.2,283.7 323.7,288 324.1,292.8 324.3,298.1 324.5,304.1 
			324.6,310.7 324.6,316.7 324.5,322.2 324.4,327.4 324.2,332 323.8,336.2 323.1,340.1 322.2,343.5 321,346.9 319.2,349.9 
			317.1,352.4 314.3,354.5 311.9,355.9 309.2,356.9 306.1,357.8 302.7,358.5 298.9,358.9 294.6,359.1 289.9,359.2 186.3,359.2 
			181.6,359.1 177.3,358.9 173.5,358.5 170,357.8 167,356.9 164.3,355.9 161.9,354.5 159.2,352.4 156.9,349.9 155.2,346.9 
			153.9,343.5 153,340.1 152.4,336.2 152,332 151.7,327.4 151.7,322.2 151.7,316.7 151.7,310.7 151.7,304.1 151.8,298.1 152,292.8 
			152.4,288 152.9,283.7 153.6,280 154.4,276.8 155.7,274 157.2,271.5 159.1,269.2 161.8,266.8 164.9,264.9 166.9,264 168.8,263.4 
			171.7,262.8 175,262.4 178.7,262.2 182.9,262 186.4,261.9 		"/>
	</g>
	<path class="st84" d="M260.6,334.6h-44.9c-1.4,0-2.5-1.1-2.5-2.5l0,0c0-1.4,1.1-2.5,2.5-2.5h44.9c1.4,0,2.5,1.1,2.5,2.5l0,0
		C263.1,333.5,262,334.6,260.6,334.6z"/>
	<line class="st84" x1="153.9" y1="343.5" x2="322.2" y2="343.5"/>
</g>
</svg>
