<?xml version="1.0" encoding="utf-8"?>
<!-- Generator: Adobe Illustrator 27.2.0, SVG Export Plug-In . SVG Version: 6.00 Build 0)  -->
<svg version="1.1" id="Layer_1" xmlns="http://www.w3.org/2000/svg" xmlns:xlink="http://www.w3.org/1999/xlink" x="0px" y="0px"
	 viewBox="0 0 476.2 380" style="enable-background:new 0 0 476.2 380;" xml:space="preserve">
<style type="text/css">
	.st0{fill:#FFFFFF;stroke:#808184;stroke-width:0.5;stroke-miterlimit:10;}
	.st1{fill:none;stroke:#808184;stroke-width:0.5;stroke-miterlimit:10;}
	.st2{fill:#808184;}
	.st3{fill:#FFFFFF;stroke:#808184;stroke-width:0.25;stroke-miterlimit:10;}
	.st4{fill:none;stroke:#808184;stroke-width:0.25;stroke-miterlimit:10;}
	.st5{fill:none;stroke:#808184;stroke-width:0.378;stroke-miterlimit:10;}
	.st6{fill:none;stroke:#808184;stroke-width:0.189;stroke-miterlimit:10;}
	.st7{fill:#FFFFFF;stroke:#808184;stroke-width:0.378;stroke-miterlimit:10;}
	.st8{fill:#808184;stroke:#808184;stroke-width:9.451170e-02;stroke-miterlimit:10;}
	.st9{fill:#FFFFFF;stroke:#808285;stroke-width:0.5;stroke-miterlimit:10;}
	.st10{fill:none;stroke:#808285;stroke-width:0.25;stroke-miterlimit:10;}
	.st11{fill:#808285;}
	.st12{fill:none;stroke:#808285;stroke-width:0.5103;stroke-miterlimit:10;}
	.st13{fill:none;stroke:#808285;stroke-width:0.1722;stroke-miterlimit:10;}
	.st14{fill:none;stroke:#808285;stroke-width:0.5081;stroke-miterlimit:10;}
	.st15{fill:#666766;}
	.st16{fill:none;stroke:#808285;stroke-width:0.1722;stroke-linecap:round;stroke-linejoin:round;stroke-miterlimit:10;}
	.st17{fill:none;stroke:#808285;stroke-width:0.5081;stroke-linecap:round;stroke-linejoin:round;stroke-miterlimit:10;}
	.st18{fill:none;stroke:#808285;stroke-width:0.6888;stroke-miterlimit:10;}
	.st19{fill:none;stroke:#808285;stroke-width:0.2913;stroke-linecap:round;stroke-linejoin:round;stroke-miterlimit:10;}
	.st20{fill:#FFFFFF;stroke:#808285;stroke-width:0.2913;stroke-linecap:round;stroke-linejoin:round;stroke-miterlimit:10;}
	.st21{fill:none;stroke:#808285;stroke-width:0.6164;stroke-miterlimit:10;}
	.st22{fill:none;stroke:#010101;stroke-width:0.1389;stroke-linecap:round;stroke-linejoin:round;stroke-miterlimit:10;}
	.st23{fill:none;stroke:#010101;stroke-width:1.959448e-02;stroke-miterlimit:10;}
	.st24{fill:none;stroke:#010101;stroke-width:7.347929e-02;stroke-linecap:round;stroke-linejoin:round;stroke-miterlimit:10;}
	.st25{fill:#888B8D;}
	.st26{fill:none;stroke:#888B8D;stroke-width:9.797239e-02;stroke-linecap:round;stroke-linejoin:round;stroke-miterlimit:10;}
	.st27{fill-rule:evenodd;clip-rule:evenodd;fill:#888B8D;}
	.st28{fill:#231F20;}
	.st29{fill:none;stroke:#010101;stroke-width:9.797239e-02;stroke-linecap:round;stroke-linejoin:round;stroke-miterlimit:10;}
	.st30{fill:none;stroke:#000000;stroke-width:0.1959;stroke-miterlimit:10;}
	.st31{fill:#898A8D;}
	.st32{fill:none;}
	.st33{fill:none;stroke:#010101;stroke-width:0.1959;stroke-linecap:round;stroke-linejoin:round;stroke-miterlimit:10;}
	.st34{fill:none;stroke:#010101;stroke-width:4.898620e-02;stroke-linecap:round;stroke-linejoin:round;stroke-miterlimit:10;}
	.st35{fill:#010101;}
	.st36{fill:none;stroke:#F15A29;stroke-width:9.797239e-02;stroke-miterlimit:10;}
	.st37{fill:none;stroke:#F15A29;stroke-width:9.797239e-02;stroke-miterlimit:10;stroke-dasharray:0.3857,0.3857,0.3857,0.3857;}
	
		.st38{fill:none;stroke:#F15A29;stroke-width:9.797239e-02;stroke-miterlimit:10;stroke-dasharray:0.3857,0.3857,0.3857,0.3857,0.3857,0.3857;}
	.st39{fill:none;stroke:#F15A29;stroke-width:9.797239e-02;stroke-miterlimit:10;stroke-dasharray:0.3977,0.3977,0.3977,0.3977;}
	
		.st40{fill:none;stroke:#F15A29;stroke-width:9.797239e-02;stroke-miterlimit:10;stroke-dasharray:0.3977,0.3977,0.3977,0.3977,0.3977,0.3977;}
	.st41{fill:#F15A29;}
	.st42{clip-path:url(#SVGID_00000009584592318537134000000005183976374214347424_);}
	.st43{fill:none;stroke:#010101;stroke-width:4.815879e-02;stroke-miterlimit:10;}
	.st44{fill:none;stroke:#010101;stroke-width:5.111984e-02;stroke-miterlimit:10;}
	.st45{fill:#C8C8C8;}
	.st46{fill:none;stroke:#010101;stroke-width:1.599009e-02;stroke-miterlimit:10;}
	.st47{fill:none;stroke:#010101;stroke-width:0.1104;stroke-linecap:round;stroke-linejoin:round;stroke-miterlimit:10;}
	.st48{fill:none;stroke:#808285;stroke-width:0.1604;stroke-miterlimit:10;}
	.st49{fill:#E8E8E8;stroke:#808285;stroke-width:0.6888;stroke-miterlimit:10;}
	.st50{fill:none;stroke:#808285;stroke-width:0.5;stroke-miterlimit:10;}
	.st51{fill:none;stroke:#010101;stroke-width:3.895216e-02;stroke-miterlimit:10;}
	.st52{opacity:0.84;fill:#FFFFFF;}
	.st53{fill:#FFFFFF;}
	.st54{fill:none;stroke:#808285;stroke-width:0.6746;stroke-linecap:round;stroke-linejoin:round;stroke-miterlimit:10;}
	.st55{fill:none;stroke:#808285;stroke-width:1.9905;stroke-linecap:round;stroke-linejoin:round;stroke-miterlimit:10;}
	.st56{fill:none;stroke:#808285;stroke-width:1.9905;stroke-miterlimit:10;}
	.st57{fill:none;stroke:#808285;stroke-width:0.6746;stroke-miterlimit:10;}
	.st58{fill:none;stroke:#808285;stroke-width:2.6985;stroke-miterlimit:10;}
	.st59{clip-path:url(#SVGID_00000180368934716499033030000018202887910826854020_);}
	.st60{clip-path:url(#SVGID_00000076583759772276728680000007168663590554758557_);}
	.st61{clip-path:url(#SVGID_00000005978991930890074000000015833825685554357377_);}
	.st62{clip-path:url(#SVGID_00000065069570770727136060000017207565332260044941_);}
	.st63{clip-path:url(#SVGID_00000085236610817745496820000008148191680354301340_);}
	.st64{fill:none;stroke:#808285;stroke-width:1.2427;stroke-miterlimit:10;}
	.st65{fill:none;stroke:#808285;stroke-width:0.4193;stroke-linecap:round;stroke-linejoin:round;stroke-miterlimit:10;}
	.st66{fill:none;stroke:#808285;stroke-width:1.2372;stroke-linecap:round;stroke-linejoin:round;stroke-miterlimit:10;}
	.st67{fill:none;stroke:#808285;stroke-width:1.2372;stroke-miterlimit:10;}
	.st68{fill:none;stroke:#808285;stroke-width:0.4193;stroke-miterlimit:10;}
	.st69{fill:none;stroke:#808285;stroke-width:1.6773;stroke-miterlimit:10;}
	.st70{fill:none;stroke:#808285;stroke-width:0.7092;stroke-linecap:round;stroke-linejoin:round;stroke-miterlimit:10;}
	.st71{fill:#FFFFFF;stroke:#808285;stroke-width:0.7092;stroke-linecap:round;stroke-linejoin:round;stroke-miterlimit:10;}
	.st72{fill:none;stroke:#808285;stroke-width:1.501;stroke-miterlimit:10;}
	.st73{fill:#84C4C0;}
	.st74{fill:none;stroke:#808285;stroke-width:2.4656;stroke-miterlimit:10;}
	.st75{fill:none;stroke:#808285;stroke-width:0.832;stroke-miterlimit:10;}
	.st76{fill:none;stroke:#808285;stroke-width:2.4548;stroke-miterlimit:10;}
	.st77{fill:none;stroke:#808285;stroke-width:0.832;stroke-linecap:round;stroke-linejoin:round;stroke-miterlimit:10;}
	.st78{fill:none;stroke:#808285;stroke-width:2.4548;stroke-linecap:round;stroke-linejoin:round;stroke-miterlimit:10;}
	.st79{fill:none;stroke:#808285;stroke-width:3.328;stroke-miterlimit:10;}
	.st80{fill:none;stroke:#808285;stroke-width:1.4072;stroke-linecap:round;stroke-linejoin:round;stroke-miterlimit:10;}
	.st81{fill:none;stroke:#808285;stroke-width:2.9781;stroke-miterlimit:10;}
	.st82{fill:#FFFFFF;stroke:#808285;stroke-width:1.4072;stroke-linecap:round;stroke-linejoin:round;stroke-miterlimit:10;}
	.st83{fill:#05A6A1;}
	.st84{fill:none;stroke:#666766;stroke-width:0.832;stroke-miterlimit:10;}
	.st85{fill:none;stroke:#666766;stroke-width:2.4548;stroke-miterlimit:10;}
	.st86{fill:none;stroke:#666766;stroke-width:2.4656;stroke-miterlimit:10;}
	.st87{fill:none;stroke:#666766;stroke-width:0.832;stroke-linecap:round;stroke-linejoin:round;stroke-miterlimit:10;}
	.st88{fill:none;stroke:#666766;stroke-width:2.4548;stroke-linecap:round;stroke-linejoin:round;stroke-miterlimit:10;}
	.st89{fill:none;stroke:#666766;stroke-width:3.328;stroke-miterlimit:10;}
	.st90{fill:none;stroke:#666766;stroke-width:1.4071;stroke-linecap:round;stroke-linejoin:round;stroke-miterlimit:10;}
	.st91{fill:none;stroke:#666766;stroke-width:2.9781;stroke-miterlimit:10;}
	.st92{fill:#FFFFFF;stroke:#666766;stroke-width:1.4071;stroke-linecap:round;stroke-linejoin:round;stroke-miterlimit:10;}
</style>
<g>
	<g>
		<g>
			<line class="st84" x1="82.2" y1="314.9" x2="127.5" y2="314.9"/>
			<line class="st84" x1="60.8" y1="328.2" x2="149" y2="328.2"/>
			<line class="st84" x1="82.2" y1="318.2" x2="127.5" y2="318.2"/>
			<line class="st84" x1="82.2" y1="321.6" x2="127.5" y2="321.6"/>
			<line class="st84" x1="67.4" y1="324.9" x2="142.4" y2="324.9"/>
			<line class="st84" x1="78.2" y1="318.2" x2="131.6" y2="318.2"/>
			<line class="st84" x1="73.2" y1="321.6" x2="136.6" y2="321.6"/>
			<g>
				<path class="st84" d="M91.7,314.5c-0.3,0-0.7-0.1-0.9-0.4c-0.6-0.5-0.6-1.4-0.1-2c6-6.6,6.6-19.9,4.1-25.7
					c-0.3-0.7,0-1.5,0.7-1.8c0.7-0.3,1.5,0,1.8,0.7c2.8,6.3,2.4,21-4.6,28.7C92.4,314.4,92,314.5,91.7,314.5z"/>
				<path class="st84" d="M118.1,314.5c0.3,0,0.7-0.1,0.9-0.4c0.6-0.5,0.6-1.4,0.1-2c-6-6.6-6.6-19.9-4.1-25.7
					c0.3-0.7,0-1.5-0.7-1.8c-0.7-0.3-1.5,0-1.8,0.7c-2.8,6.3-2.4,21,4.6,28.7C117.4,314.4,117.7,314.5,118.1,314.5z"/>
			</g>
			<path class="st85" d="M160.8,344.5l-5.9-0.7l-6.8-6.8c0,0-1.3-1-1.3-3.3c0-2.3,2-3.9,4-4.7h0l0,0l-1.7-0.7l-0.1-0.1l-3.6-1.8
				l-0.5-0.2l-0.4-0.3l-0.5-0.2l-0.5-0.3l-0.6-0.3l-1.8-0.9l-4.3-2.5l-3.6-2.4l-3.1-2.3l-2.6-2.1l-3.8-4l-2.9-4.1l-1.8-3.6l-1.1-3.6
				l-0.5-3.8l0.1-2.6l0.3-2.9l0.5-4l0.2-4.1l-0.1-1.5l-0.2-1.6l-0.3-1.3l-0.6-1.5l-0.8-1.5l-1-1.5l-1.6-1.6l-2-1.3l-1.3-0.6
				l-1.6-0.4l-1.6-0.2l-2-0.1h-0.1h-0.1h-0.1H105H105h-0.1h-0.1h-0.1h-0.1h-0.1h-0.1h-0.1l-2,0.1l-1.6,0.2l-1.6,0.4l-1.3,0.6l-2,1.3
				l-1.6,1.6l-1,1.5l-0.8,1.5l-0.6,1.5l-0.3,1.3l-0.2,1.6l-0.1,1.5l0.2,4.1l0.5,4l0.3,2.9l0.1,2.6l-0.5,3.8l-1.1,3.6l-1.8,3.6
				l-2.9,4.1l-3.8,4l-2.6,2.1l-3.1,2.3l-3.6,2.4l-4.3,2.5l-1.8,0.9l-0.6,0.3l-0.5,0.3l-0.5,0.2l-0.4,0.3l-0.5,0.2l-3.6,1.8l-0.1,0.1
				L59,329l0,0c2,0.8,4,2.5,4,4.7c0,2.3-1.3,3.3-1.3,3.3l-6.8,6.8l-5.9,0.7l-3.2,14.7l59.1,0l59.1,0L160.8,344.5z"/>
			<line class="st84" x1="54.9" y1="343.8" x2="154.9" y2="343.8"/>
			<line class="st84" x1="62.8" y1="335.2" x2="147" y2="335.2"/>
		</g>
		<g>
			<line class="st84" x1="244.1" y1="314.9" x2="289.4" y2="314.9"/>
			<line class="st84" x1="222.7" y1="328.2" x2="310.9" y2="328.2"/>
			<line class="st84" x1="244.1" y1="318.2" x2="289.4" y2="318.2"/>
			<line class="st84" x1="244.1" y1="321.6" x2="289.4" y2="321.6"/>
			<line class="st84" x1="229.3" y1="324.9" x2="304.3" y2="324.9"/>
			<line class="st84" x1="240.1" y1="318.2" x2="293.5" y2="318.2"/>
			<line class="st84" x1="235.1" y1="321.6" x2="298.4" y2="321.6"/>
			<g>
				<path class="st84" d="M253.5,314.5c-0.3,0-0.7-0.1-0.9-0.4c-0.6-0.5-0.6-1.4-0.1-2c6-6.6,6.6-19.9,4.1-25.7
					c-0.3-0.7,0-1.5,0.7-1.8c0.7-0.3,1.5,0,1.8,0.7c2.8,6.3,2.4,21-4.6,28.7C254.3,314.4,253.9,314.5,253.5,314.5z"/>
				<path class="st84" d="M280,314.5c0.3,0,0.7-0.1,0.9-0.4c0.6-0.5,0.6-1.4,0.1-2c-6-6.6-6.6-19.9-4.1-25.7c0.3-0.7,0-1.5-0.7-1.8
					c-0.7-0.3-1.5,0-1.8,0.7c-2.8,6.3-2.4,21,4.6,28.7C279.2,314.4,279.6,314.5,280,314.5z"/>
			</g>
			<path class="st85" d="M322.7,344.5l-5.9-0.7L310,337c0,0-1.3-1-1.3-3.3c0-2.3,2-3.9,4-4.7h0l0,0l-1.7-0.7l-0.1-0.1l-3.6-1.8
				l-0.5-0.2l-0.4-0.3l-0.5-0.2l-0.5-0.3l-0.6-0.3l-1.8-0.9l-4.3-2.5l-3.6-2.4L292,317l-2.6-2.1l-3.8-4l-2.9-4.1l-1.8-3.6l-1.1-3.6
				l-0.5-3.8l0.1-2.6l0.3-2.9l0.5-4l0.2-4.1l-0.1-1.5l-0.2-1.6l-0.3-1.3l-0.6-1.5l-0.8-1.5l-1-1.5l-1.6-1.6l-2-1.3l-1.3-0.6
				l-1.6-0.4l-1.6-0.2l-2-0.1h-0.1H267H267h-0.1h-0.1h-0.1h-0.1h-0.1h-0.1h-0.1h-0.1h-0.1l-2,0.1l-1.6,0.2l-1.6,0.4l-1.3,0.6l-2,1.3
				l-1.6,1.6l-1,1.5l-0.8,1.5l-0.6,1.5l-0.3,1.3l-0.2,1.6l-0.1,1.5l0.2,4.1l0.5,4l0.3,2.9l0.1,2.6l-0.5,3.8l-1.1,3.6l-1.8,3.6
				l-2.9,4.1l-3.8,4l-2.6,2.1l-3.1,2.3l-3.6,2.4l-4.3,2.5l-1.8,0.9l-0.6,0.3l-0.5,0.3l-0.5,0.2l-0.4,0.3l-0.5,0.2l-3.6,1.8l-0.1,0.1
				l-1.7,0.7l0,0c2,0.8,4,2.5,4,4.7c0,2.3-1.3,3.3-1.3,3.3l-6.8,6.8l-5.9,0.7l-3.2,14.7l59.1,0l59.1,0L322.7,344.5z"/>
			<line class="st84" x1="216.7" y1="343.8" x2="316.8" y2="343.8"/>
			<line class="st84" x1="224.7" y1="335.2" x2="308.8" y2="335.2"/>
		</g>
	</g>
	<g>
		<g>
			<path class="st15" d="M416,359.2h-34.9c-8,0-14.5-6.5-14.5-14.5v-34.9c0-8,6.5-14.5,14.5-14.5H416c8,0,14.5,6.5,14.5,14.5v34.9
				C430.5,352.7,424,359.2,416,359.2z"/>
		</g>
		<g>
			<path class="st53" d="M389.3,306c0,0,6.9,9.3,6.9,14.5c0,3.8-3.1,6.9-6.9,6.9c-3.8,0-6.9-3.1-6.9-6.9
				C382.4,315.3,389.3,306,389.3,306z"/>
		</g>
		<g>
			<path class="st53" d="M407.5,306c0,0,6.9,9.3,6.9,14.5c0,3.8-3.1,6.9-6.9,6.9s-6.9-3.1-6.9-6.9C400.6,315.3,407.5,306,407.5,306z
				"/>
		</g>
		<g>
			<path class="st53" d="M389.3,328.9c0,0,6.9,9.3,6.9,14.5c0,3.8-3.1,6.9-6.9,6.9c-3.8,0-6.9-3.1-6.9-6.9
				C382.4,338.2,389.3,328.9,389.3,328.9z"/>
		</g>
		<g>
			<path class="st53" d="M407.7,331.6c2.2,3.2,5.4,8.6,5.4,11.8c0,3-2.4,5.4-5.4,5.4s-5.4-2.4-5.4-5.4
				C402.4,340.2,405.5,334.8,407.7,331.6 M407.7,328.9c0,0-6.9,9.3-6.9,14.5c0,3.8,3.1,6.9,6.9,6.9c3.8,0,6.9-3.1,6.9-6.9
				C414.6,338.2,407.7,328.9,407.7,328.9L407.7,328.9z"/>
		</g>
	</g>
	<g>
		<g>
			<path class="st15" d="M416,281.7h-34.9c-8,0-14.5-6.5-14.5-14.5v-34.9c0-8,6.5-14.5,14.5-14.5H416c8,0,14.5,6.5,14.5,14.5v34.9
				C430.5,275.3,424,281.7,416,281.7z"/>
		</g>
		<g>
			<path class="st53" d="M380.9,257.7c-3.5,0-6.1-2.7-6.1-5.9c0-1.9,0.9-3.3,2-4.6l6.6-7.7h2.8l-5.5,6.5c0.3,0,0.5-0.1,0.7-0.1
				c3,0,5.6,2.7,5.6,5.8C387,255,384.4,257.7,380.9,257.7z M380.9,255.6c2.2,0,3.9-1.8,3.9-3.9s-1.7-3.9-3.9-3.9
				c-2.2,0-3.9,1.8-3.9,3.9S378.7,255.6,380.9,255.6z"/>
			<path class="st53" d="M390.1,244.7h2.2v2c0.7-1.3,2.1-2.2,3.8-2.2c1.9,0,3.3,1,3.9,2.7c0.7-1.7,2.3-2.7,4.2-2.7
				c2.8,0,4.4,2.1,4.4,5.2v7.8h-2.2V250c0-2.1-0.9-3.5-2.5-3.5c-2.1,0-3.5,1.8-3.5,4.6v6.3h-2.2V250c0-2.1-0.8-3.5-2.5-3.5
				c-2.1,0-3.5,1.8-3.5,4.6v6.3h-2.2V244.7z"/>
			<path class="st53" d="M411.5,249.1h4.4v-4.4h2v4.4h4.4v2h-4.4v4.4h-2v-4.4h-4.4V249.1z"/>
		</g>
	</g>
</g>
</svg>
