<svg id="_4acab4be-1b78-4d7f-8de0-11dafdafabaf" data-name="4acab4be-1b78-4d7f-8de0-11dafdafabaf" xmlns="http://www.w3.org/2000/svg" viewBox="0 0 425 200"><defs><style>.cls-1{fill:#797d82;}</style></defs><title>ember_press</title><path class="cls-1" d="M339.15,104.27c.27-6,.59-15.29-3.88-24.08A21.8,21.8,0,0,0,315.33,68c-9.48,0-20.72,6.45-22.93,26.62V49.06H268.27l0,11.23c4.06,0,6.55,2.07,6.56,6.13V94.57C272.23,73.44,262,67.88,257,67.91a12.07,12.07,0,0,0-11.83,9V69.21H224.43V81.14C221.14,71.46,211,67.88,205.1,67.9c-3.3,0-17.39,1.46-21.52,20.58-3.82-25.1-26.67-23.23-36.31-14.84-.51-6.32-1.77-14.87-8.08-19.84-3.42-2.69-8.49-4.86-15.62-4.86H85.73V62.42c6.59,0,6.82,6.33,6.82,7.29v40.55c0,4.58-1.74,7.55-6.85,7.59v13.4h35.07V117.57c-5.11,0-6.79-2.77-6.79-7.35V98.85h6c7.1-.26,13.08.6,19.54-6.33-.18,1.91-.69,5.8-.69,7.8-.25,10,.91,19.19,6.91,25.29a23.05,23.05,0,0,0,16.1,7.14c5.56.08,18.21-1,21.57-20,.77,2.56,4.84,20,22.84,20,18.16,0,21.95-16.53,22.86-21.65v20.34c-.05,5.42-4,7.84-6.5,7.92v11.23h29.53V139.39c-3.28-.45-6.36-3.5-6.41-8.33l-.24-7.77a14.61,14.61,0,0,0,12.41,9.5c3.39,0,11.14-1.87,13.35-15.41v13.86h25.3v-13.7c3.22,21,39.92,20.83,42.11-5.71H321.2c-.65,3.8-2.33,6.83-5.51,6.81h0c-3.91,0-5.55-4.5-5.79-9.49a44.29,44.29,0,0,1-.1-4.87ZM119,83.54h-4.91v-19H119c3.84,0,6,3.21,6,9.41C125,80.73,123.42,83.41,119,83.54Zm37.38,8c.24-5,2-9.77,5.92-9.75s5.43,4.76,5.68,9.75a15.26,15.26,0,0,1,0,3h-11.6A15.26,15.26,0,0,1,156.34,91.52Zm11.55,20.34c-.66,3.81-2.34,6.8-5.52,6.78-3.91,0-5.55-4.5-5.8-9.49a44.29,44.29,0,0,1-.1-4.87h25.75a33.94,33.94,0,0,0,.95,7.58Zm38.32,6.92c-4.57-.07-6.39-8.21-6.39-18.33s2-18.38,6.39-18.32,6.38,8.2,6.38,18.32S210.9,118.84,206.21,118.78Zm44.86-.16c-3.57,0-4.82-3.87-4.82-9V90.9c-.19-6.36,1.67-9.45,5.29-9.29s5.9,5,5.9,18.9C257.44,113.21,255.06,118.62,251.07,118.62Zm58.7-27.1c.26-5,1.9-9.4,5.81-9.38s5.55,4.39,5.8,9.38a16.06,16.06,0,0,1,0,3H309.77A16.06,16.06,0,0,1,309.77,91.52Z"/></svg>