<svg id="_4acab4be-1b78-4d7f-8de0-11dafdafabaf" data-name="4acab4be-1b78-4d7f-8de0-11dafdafabaf" xmlns="http://www.w3.org/2000/svg" viewBox="0 0 425 200"><defs><style>.cls-1{fill:#797d82;}</style></defs><title>ember_press</title><path class="cls-1" d="M272.23,106.46l-2.51-3.4H239.8L252,120.62c-12.66,2.47-24.6-8.11-24.44-20.42A22.11,22.11,0,0,1,250,78.29c13.33.07,26.62,14.44,22.22,28.17M290.18,128s8.87-11.58,8.91-26.66c.07-29.62-20.68-48.86-49.63-48.91A48.5,48.5,0,0,0,209.82,72.6a44.1,44.1,0,0,1,6.53,13.25H203.09a47.67,47.67,0,0,0-1.58,6.44h16.36a46.53,46.53,0,0,1,.59,7.42A47.4,47.4,0,0,1,209.85,127a48,48,0,0,0,39.77,20.93,43.08,43.08,0,0,0,21.12-5.69l3.05,4h29.46L290.18,128Z"/><path class="cls-1" d="M173.68,114.77h12.19c0,.54-6.24,6.62-15.62,6.62-10.31,0-22-8.15-22.22-21.19-.24-13.51,11.43-22.37,22.22-22,8.74.31,12.07,2.82,17,7.62l14.22,0h14.9A44.1,44.1,0,0,0,209.8,72.6c-.31-.42-.6-.86-.93-1.28-7.16-9.54-19.62-19.22-39-19.25A48.09,48.09,0,0,0,123.8,85.85c-.07.22-.14.46-.2.68,0,0,0,0,0,0a47.69,47.69,0,0,0-1.84,13.09,50.34,50.34,0,0,0,1.64,12.44,48.13,48.13,0,0,0,25.67,30.81l.31.14a1.21,1.21,0,0,0,.2.09,51.12,51.12,0,0,0,21,4.53,48.38,48.38,0,0,0,38.81-19.91c.18-.25.34-.51.52-.76a47.46,47.46,0,0,0,8.61-27.3,46.53,46.53,0,0,0-.59-7.42H173.68v22.5Z"/></svg>