<?xml version="1.0" encoding="utf-8"?>
<!-- Generator: Adobe Illustrator 23.1.1, SVG Export Plug-In . SVG Version: 6.00 Build 0)  -->
<svg version="1.1" xmlns="http://www.w3.org/2000/svg" xmlns:xlink="http://www.w3.org/1999/xlink" x="0px" y="0px"
	 viewBox="0 0 50 50" style="enable-background:new 0 0 50 50;" xml:space="preserve">
<style type="text/css">
	.st0{fill:none;stroke:#000000;stroke-width:2;stroke-linecap:round;stroke-linejoin:round;stroke-miterlimit:10;}
	.st1{fill:none;stroke:#000000;stroke-width:2;stroke-miterlimit:10;}
	.st2{fill:none;stroke:#E85325;stroke-width:1.166;stroke-linecap:round;stroke-linejoin:round;stroke-miterlimit:10;}
	.st3{stroke:#000000;stroke-width:2;stroke-linecap:round;stroke-linejoin:round;stroke-miterlimit:10;}
	.st4{fill:none;stroke:#000000;stroke-width:2;stroke-linecap:round;stroke-miterlimit:10;}
	.st5{fill:none;stroke:#000000;stroke-width:2;stroke-linejoin:round;stroke-miterlimit:10;}
	.st6{fill:none;stroke:#FFFFFF;stroke-width:2;stroke-linecap:round;stroke-miterlimit:10;}
	.st7{fill:#FFFFFF;}
	.st8{fill:none;stroke:#010101;stroke-width:1.5;stroke-miterlimit:10;}
	.st9{fill:#010101;}
	.st10{fill:none;stroke:#010101;stroke-width:2;stroke-linecap:round;stroke-miterlimit:10;}
	.st11{fill:#676767;}
	.st12{fill:#FFFFFF;stroke:#000000;stroke-width:2;stroke-linecap:round;stroke-linejoin:round;stroke-miterlimit:10;}
	.st13{fill:#FFFFFF;stroke:#000000;stroke-width:1.9824;stroke-linecap:round;stroke-linejoin:round;stroke-miterlimit:10;}
	.st14{fill:#E85325;}
	.st15{display:none;}
	.st16{display:inline;opacity:0.32;fill:#FFFFFF;}
</style>
<g id="ICON_PACK_VOL._1">
</g>
<g id="Icons">
	<g>
		<g>
			<line class="st2" x1="30.6" y1="14" x2="32.6" y2="14"/>
			<line class="st2" x1="30.6" y1="17.5" x2="31.6" y2="17.5"/>
			<line class="st2" x1="30.6" y1="21" x2="32.6" y2="21"/>
			<line class="st2" x1="30.6" y1="24.5" x2="31.6" y2="24.5"/>
			<line class="st2" x1="30.6" y1="28" x2="32.6" y2="28"/>
			<path class="st2" d="M28.1,31.4V13.5c0-1.9-1.6-3.5-3.5-3.5s-3.5,1.6-3.5,3.5v17.9c-0.9,0.9-1.5,2.2-1.5,3.6c0,2.8,2.2,5,5,5
				s5-2.2,5-5C29.6,33.6,29,32.3,28.1,31.4z"/>
			<line class="st2" x1="24.6" y1="14" x2="24.6" y2="35"/>
			<circle class="st14" cx="24.6" cy="35" r="2.5"/>
		</g>
	</g>
</g>
<g id="Circles">
	<circle class="st2" cx="25" cy="25" r="22"/>
</g>
<g id="Layer_3" class="st15">
	<g id="Rectangles">
		<rect x="10.2" y="22.3" class="st16" width="40" height="40"/>
	</g>
</g>
<g id="Guides">
</g>
</svg>
