<svg id="_4acab4be-1b78-4d7f-8de0-11dafdafabaf" data-name="4acab4be-1b78-4d7f-8de0-11dafdafabaf" xmlns="http://www.w3.org/2000/svg" viewBox="0 0 425 200"><defs><style>.cls-1{fill:#797d82;}</style></defs><title>ember_press</title><path class="cls-1" d="M127,89.19c0,8.8,1.72,13,7,13,5.46,0,7.28-4.34,7.28-13.84,0-8.68-1.82-12.92-7.06-12.92S127,79.7,127,89.19m-11.41,40.3c0,5.65,5.76,9.39,16.77,9.39,11.71,0,17.67-3.32,17.67-8.69,0-3.53-2.72-5.45-8-6-8.68-.81-16.35.3-22.12-1.42a7.53,7.53,0,0,0-4.34,6.67m38.78-40.9c0,8.29-6.76,14-19.91,15.55-7.57.81-12.12,1.61-12.12,5.15s6.67,3,17.68,3.31c12,.31,18.28,3.64,18.28,12.23,0,9.79-9.39,16.18-26.06,16.18-14.54,0-22.32-4.57-22.32-11a7.35,7.35,0,0,1,2.93-5.76,13.68,13.68,0,0,1,4.85-2.43,8.37,8.37,0,0,1-4.33-7.67c0-6.67,5.25-10.4,15.77-11C119,101.31,113.8,96.46,113.8,89.19c0-8.18,7.67-15,19.79-15.65.9-9.19,5.55-14.55,10.7-14.55a5.24,5.24,0,0,1,5.55,5.26c0,3.43-2.32,5.85-5.45,5.85-1.92,0-3.23-1.21-4.75-1.21-2.52,0-3.73,1.42-4,4.75,11.72.6,18.78,6.76,18.78,14.93m17.79,8.59c0,14.54,3.54,21.71,11.11,21.71s11.2-7.17,11.2-21.71-3.73-21.82-11.2-21.82-11.11,7.3-11.11,21.82m36.06,0c0,13.74-10.2,23.73-24.95,23.73S158.45,111,158.45,97.16s10.1-23.73,24.85-23.73,24.94,10,24.94,23.73m18.15,0c0,14.54,3.54,21.71,11.11,21.71s11.2-7.17,11.2-21.71S245,75.34,237.5,75.34s-11.11,7.3-11.11,21.82m36.06,0c0,13.74-10.2,23.73-24.95,23.73S212.66,111,212.66,97.16s10.09-23.73,24.84-23.73,24.95,10,24.95,23.73m27.65,21.22c6.86,0,12.11-7,12.11-19.8,0-11.92-5.65-19-11.91-19-3,0-5.66,1.31-8.39,3.83v21.72c0,8.68,2.22,13.23,8.18,13.23M281.91,130c0,4.15.71,6.36,3.32,7.17,2.12.71,3.63.41,3.63,1.72,0,.7-.5,1.21-1.41,1.21H264.14a1.2,1.2,0,0,1-1.31-1.07c0-.05,0-.1,0-.14,0-1.21,1.42-.91,3.14-1.62,2.72-1.11,3.43-2.93,3.43-7.27V89c0-4.34-.91-6-4-7.27-1.61-.71-2.93-.61-2.93-1.72,0-1.71,6.27-1.31,19.5-6.26v6.87c6-4.75,10.91-7.17,16.18-7.17,9.69,0,17,8.08,17,20.4,0,15.65-10.61,26.66-26,26.66a27.52,27.52,0,0,1-7.17-1V130Z"/></svg>