<svg id="_4acab4be-1b78-4d7f-8de0-11dafdafabaf" data-name="4acab4be-1b78-4d7f-8de0-11dafdafabaf" xmlns="http://www.w3.org/2000/svg" xmlns:xlink="http://www.w3.org/1999/xlink" viewBox="0 0 425 200"><defs><style>.cls-1{fill:#fff;}.cls-1,.cls-3{fill-rule:evenodd;}.cls-2{mask:url(#mask);}.cls-3{fill:#797d82;}</style><mask id="mask" x="47" y="74.28" width="331" height="51.45" maskUnits="userSpaceOnUse"><g id="b"><path id="a" class="cls-1" d="M47,74.28H378v51.44H47Z"/></g></mask></defs><title>ember_press</title><g class="cls-2"><path class="cls-3" d="M74.88,82.8h.57V75.47H47V76c3.28,2.66,3.73,3.44,3.73,6.35v35.5c0,2.91-.45,3.69-3.73,6.36v.49H61.76v-.49c-3.32-2.5-3.9-3.45-3.9-6.23V100.35h3.2c4.18,0,4.92.28,8.48,4.84H70V93.63h-.5c-3.56,4.54-4.3,4.83-8.48,4.83h-3.2V77.27h4.88c2,0,3.65.65,12.14,5.53Zm11.23,20.87H76.23l4.68-14.3c.22.51.43,1.08.67,1.75Zm7.77,4.18L85.31,84.32H77.56v.45a14.29,14.29,0,0,1,2.35,2.64L73.5,106.86c-1.14,3.49-1.88,4.6-4.79,7.3v.5h9v-.5c-2.46-1.51-3.28-2.5-3.28-3.93a10.79,10.79,0,0,1,.74-3.24l.56-1.72h11l1,2.78a9.61,9.61,0,0,1,.74,3.16c0,1-.7,1.89-2.59,3v.5H98.39v-.5c-3-2.42-3.41-3.23-4.51-6.31Zm18.84-25h.58V75.71a51.06,51.06,0,0,0-8.65-.9c-8.25,0-12.3,5.49-12.3,11.35,0,6.77,4.38,10.83,10,15.5,6.06,5.08,9.63,8.16,9.63,14,0,4.84-3.19,7.79-7.46,7.79-3.73,0-6.68-1.48-14.51-7.63h-.69l2.86,8a39.5,39.5,0,0,0,10.58,1.47c9.39,0,14.84-5.69,14.84-13.61,0-7.29-4.26-11-10.33-15.94-5.58-4.52-9.39-8.16-9.39-13.41a5.43,5.43,0,0,1,5.74-5.74c2.42,0,4.1,1,9.1,6.19Zm36.12,0h.57V75.46H115.88V82.8h.57c7.91-5,9.51-5.66,11.36-5.66h1.27v40.79c0,2.79-.58,3.74-3.9,6.23v.5h14.93v-.5c-3.33-2.49-3.9-3.44-3.9-6.23V77.14h1.27c1.84,0,3.44.66,11.36,5.66Zm42.76-1.31h.58V75.18a81.4,81.4,0,0,0-11.48-.9C163.28,74.28,153,84,153,100.1c0,15.83,9.87,25.62,27.09,25.62a45.55,45.55,0,0,0,11.69-1.51l1.26-7h-.56c-6.44,5.45-9.31,6.72-14,6.72-12.88,0-17.18-9.72-17.18-24.1,0-14.64,4.3-23.58,16.48-23.58,3.89,0,6.64.9,13.85,5.25Zm-1.66,18.33c0,8.11-.69,13.48-6.56,13.48s-6.56-5.37-6.56-13.49.66-13.48,6.56-13.48S189.94,91.7,189.94,99.82Zm7,0c0-8.58-5.08-15-13.53-15s-13.52,6.48-13.52,15,5.08,15,13.52,15S196.91,108.3,196.91,99.82Zm30.15,24.75,14.6.09v-.5c-3.28-2.66-3.73-3.44-3.73-6.35V82.31c0-2.91.45-3.69,3.73-6.31v-.49l-10.33-.09-11.47,36.34-11.73-36.3H197.67V76a29.65,29.65,0,0,1,4.06,4v34.4c0,4-.49,5.57-4.18,9.83v.5h11.68v-.5c-4.92-4-5.61-5.69-5.61-9.83V83.72c.08.24.16.46.24.72L217,125.07h.58l13.19-41.82v34.52c0,2.91-.45,3.69-3.73,6.31Zm42.25-34.06c0,9.22-2.17,13.08-9.22,13.08H256V77.27h2.86C266.68,77.27,269.31,80.59,269.31,90.51Zm7.62-.33c0-11.07-7.75-14.71-18.24-14.71H245.16V76c3.28,2.66,3.73,3.44,3.73,6.35v35.5c0,2.91-.45,3.69-3.73,6.35v.5h14.76v-.5c-3.32-2.49-3.89-3.44-3.89-6.23V105.39h3.85C269.14,105.39,276.93,101.45,276.93,90.18Zm18,16.52H281l6.86-24.79c.15.42.29.87.44,1.38l6.63,23.41ZM378,76v-.49H366.89V76c3,2.66,3.89,3.93,3.89,5.86a8.79,8.79,0,0,1-1.06,3.73l-6.38,14.91L355,82a7.08,7.08,0,0,1-.86-3c0-1.31.74-2,2.75-3.07v-.49h-24.6V76c5.49,4.06,6.23,5.65,6.23,10.12v28.3L318,75.46H307.78V76a27.18,27.18,0,0,1,4.42,4.38v34.1c0,3.71-.41,5.32-3.35,9.72-2.26-2.84-2.76-4.2-3.9-8.24l-11.6-40.45h-10V76a17.82,17.82,0,0,1,3.29,3.44L277,114.12c-1.39,5-2.5,6.56-6.19,10v.5h11.89v-.5c-3.4-2.58-4.46-3.89-4.46-6.15a15,15,0,0,1,.69-3.89l1.54-5.57h14.95l2.08,7.33a16.29,16.29,0,0,1,.9,4.19c0,1.27-.53,2.13-3,4.09v.5h24.92v-.5c-5.49-4-6.23-5.65-6.23-9.71v-31l.12.22,21.69,41h4.51V86.08c0-4.08.41-5.7,3.24-10.1a29.3,29.3,0,0,1,4.55,7.52l8.85,19.57v14.87c0,2.78-.58,3.73-3.89,6.22v.5h14.92v-.5c-3.32-2.49-3.89-3.44-3.89-6.23V102.85l7.37-17.18C373.12,82,374.31,80.31,378,76Z"/></g></svg>